<svg width="1440" height="420" viewBox="0 0 1440 420" fill="none" xmlns="http://www.w3.org/2000/svg">
  <defs>
    <linearGradient id="paint0_linear" x1="0" y1="0" x2="1440" y2="420" gradientUnits="userSpaceOnUse">
      <stop stop-color="#F8F7F1"/>
      <stop offset="0.52" stop-color="#EEF0E7"/>
      <stop offset="1" stop-color="#E1E7D8"/>
    </linearGradient>
    <radialGradient id="paint1_radial" cx="0" cy="0" r="1" gradientUnits="userSpaceOnUse" gradientTransform="translate(1180 70) rotate(122.739) scale(212.702 289.97)">
      <stop stop-color="#1B5E20" stop-opacity="0.40"/>
      <stop offset="1" stop-color="#A4DD00" stop-opacity="0"/>
    </radialGradient>
    <radialGradient id="paint2_radial" cx="0" cy="0" r="1" gradientUnits="userSpaceOnUse" gradientTransform="translate(220 360) rotate(-35.9046) scale(260.61 220.318)">
      <stop stop-color="#8A6D1F" stop-opacity="0.18"/>
      <stop offset="1" stop-color="#6DBA2F" stop-opacity="0"/>
    </radialGradient>
    <pattern id="dots" width="28" height="28" patternUnits="userSpaceOnUse">
      <circle cx="4" cy="4" r="1.15" fill="#173018" fill-opacity="0.10"/>
      <circle cx="18" cy="14" r="1.15" fill="#8A6D1F" fill-opacity="0.10"/>
    </pattern>
    <pattern id="mesh" width="120" height="120" patternUnits="userSpaceOnUse">
      <path d="M0 120L120 0" stroke="#173018" stroke-opacity="0.08" stroke-width="1"/>
      <path d="M-20 120L120 -20" stroke="#8A6D1F" stroke-opacity="0.07" stroke-width="1"/>
      <path d="M0 0L120 120" stroke="#1B5E20" stroke-opacity="0.05" stroke-width="1"/>
    </pattern>
    <filter id="blur" x="-20%" y="-20%" width="140%" height="140%">
      <feGaussianBlur stdDeviation="18"/>
    </filter>
  </defs>

  <rect width="1440" height="420" fill="url(#paint0_linear)"/>
  <rect width="1440" height="420" fill="url(#mesh)" opacity="0.9"/>
  <rect width="1440" height="420" fill="url(#dots)" opacity="0.75"/>
  <circle cx="1180" cy="75" r="165" fill="url(#paint1_radial)" filter="url(#blur)"/>
  <circle cx="220" cy="360" r="175" fill="url(#paint2_radial)" filter="url(#blur)"/>

  <path d="M0 312C120 260 180 308 304 286C416 266 472 180 586 170C720 158 792 250 914 238C1037 226 1120 146 1246 152C1324 156 1380 186 1440 202V420H0V312Z" fill="#173018" fill-opacity="0.12"/>
  <path d="M0 350C128 316 201 348 322 330C445 311 476 241 604 228C708 218 792 292 904 281C1024 269 1096 216 1218 216C1314 216 1372 242 1440 260V420H0V350Z" fill="#8A6D1F" fill-opacity="0.10"/>
  <path d="M0 0H1440V420H0V0Z" fill="#FFFFFF" fill-opacity="0.03"/>
</svg>
