<?xml version="1.0" encoding="UTF-8"?>
<svg version="1.1" xmlns="http://www.w3.org/2000/svg" width="361" height="360">
<path d="M0 0 C1.41207481 -0.02289345 1.41207481 -0.02289345 2.85267639 -0.04624939 C23.37948228 -0.31725644 42.50067076 -0.28817782 62.16796875 6.30859375 C63.3271582 6.67694336 63.3271582 6.67694336 64.50976562 7.05273438 C88.65776883 14.81688421 109.84877697 28.97559011 128.16796875 46.30859375 C128.98910156 47.076875 129.81023437 47.84515625 130.65625 48.63671875 C155.5816365 72.67052844 175.94194157 110.83305254 177.60546875 145.87109375 C177.4584234 150.28245428 176.1565254 152.97848777 173.16796875 156.30859375 C169.09522464 157.66617512 165.42554655 157.81830377 161.16796875 157.30859375 C157.23469887 155.34195881 155.88505719 153.11716323 154.41796875 149.12109375 C153.26667102 145.21054056 152.76177073 141.40171039 152.40625 137.3515625 C152.07369606 134.50032138 151.13909154 132.00615704 150.16796875 129.30859375 C149.40564629 126.54210095 148.67388554 123.76876406 147.94921875 120.9921875 C147.21190186 118.28013883 147.21190186 118.28013883 146.07421875 115.65625 C145.16796875 113.30859375 145.16796875 113.30859375 145.16796875 110.30859375 C144.50796875 109.97859375 143.84796875 109.64859375 143.16796875 109.30859375 C142.2448376 107.38180912 141.40181638 105.41614277 140.60546875 103.43359375 C140.17105469 102.36367187 139.73664063 101.29375 139.2890625 100.19140625 C138.53354076 98.24863607 137.82714771 96.28613064 137.16796875 94.30859375 C136.50796875 93.97859375 135.84796875 93.64859375 135.16796875 93.30859375 C134.13651504 91.99944096 133.13254709 90.66777232 132.16796875 89.30859375 C132.49796875 88.64859375 132.82796875 87.98859375 133.16796875 87.30859375 C132.17796875 86.97859375 131.18796875 86.64859375 130.16796875 86.30859375 C129.13363971 84.32612977 128.13558483 82.32446059 127.16796875 80.30859375 C126.18858085 79.28839802 125.18901426 78.2870957 124.16796875 77.30859375 C123.16796875 75.64192708 122.16796875 73.97526042 121.16796875 72.30859375 C119.2595739 70.16164954 117.60580828 68.9338201 115.16796875 67.30859375 C113.83463542 65.64192708 112.50130208 63.97526042 111.16796875 62.30859375 C110.17796875 61.64859375 109.18796875 60.98859375 108.16796875 60.30859375 C108.16796875 59.64859375 108.16796875 58.98859375 108.16796875 58.30859375 C107.40484375 58.04046875 106.64171875 57.77234375 105.85546875 57.49609375 C103.19264149 56.31949566 102.12499655 55.37181686 100.16796875 53.30859375 C91.73364753 45.42433696 81.85721467 39.71484279 71.21484375 35.31640625 C69.16796875 34.30859375 69.16796875 34.30859375 68.16796875 32.30859375 C65.80246805 31.53105353 65.80246805 31.53105353 62.91796875 30.93359375 C58.39189955 29.88126924 54.01707064 28.64179988 49.60546875 27.18359375 C44.43905363 25.54455011 39.62017072 24.75776581 34.21484375 24.484375 C32.16796875 24.30859375 32.16796875 24.30859375 31.16796875 23.30859375 C30.17796875 23.30859375 29.18796875 23.30859375 28.16796875 23.30859375 C25.31701924 23.30859375 22.91868775 23.17714776 20.140625 22.7890625 C14.59875218 22.14835079 9.16752264 22.35554114 3.60546875 22.62109375 C2.12143555 22.67426758 2.12143555 22.67426758 0.60742188 22.72851562 C-5.16234947 22.98503499 -10.27378579 23.75917134 -15.83203125 25.30859375 C-17.13140625 25.45296875 -18.43078125 25.59734375 -19.76953125 25.74609375 C-25.39825862 26.38124197 -30.49159157 28.44567302 -35.77734375 30.39453125 C-36.76476562 30.75804688 -37.7521875 31.1215625 -38.76953125 31.49609375 C-39.68605469 31.84027344 -40.60257813 32.18445313 -41.546875 32.5390625 C-43.83203125 33.30859375 -43.83203125 33.30859375 -45.83203125 33.30859375 C-46.32703125 34.29859375 -46.32703125 34.29859375 -46.83203125 35.30859375 C-50.10338758 37.03389812 -53.41171844 38.63001053 -56.75390625 40.2109375 C-60.89281604 42.21191778 -64.29789976 44.3244761 -67.83203125 47.30859375 C-68.79238281 47.94152344 -69.75273438 48.57445312 -70.7421875 49.2265625 C-74.11692386 51.50056311 -77.17902164 53.98213165 -80.26953125 56.62109375 C-80.80384766 57.06904297 -81.33816406 57.51699219 -81.88867188 57.97851562 C-115.47137972 86.48148615 -128.09668958 126.88361556 -131.83203125 169.30859375 C-125.89203125 168.97859375 -119.95203125 168.64859375 -113.83203125 168.30859375 C-113.39632812 167.12265625 -112.960625 165.93671875 -112.51171875 164.71484375 C-111.91023249 163.07939904 -111.30866387 161.44398462 -110.70703125 159.80859375 C-110.23487183 158.5242041 -110.23487183 158.5242041 -109.75317383 157.21386719 C-108.21874425 153.04650908 -106.67646037 148.88272121 -105.1015625 144.73046875 C-104.83424316 144.02470703 -104.56692383 143.31894531 -104.29150391 142.59179688 C-103.56122104 140.66839532 -102.82758652 138.74626729 -102.09375 136.82421875 C-101.24969706 134.47236845 -100.48901867 132.08899345 -99.8125 129.68359375 C-98.91987192 126.61096162 -97.87040739 123.92135562 -96.45703125 121.05859375 C-96.05742188 120.2284375 -95.6578125 119.39828125 -95.24609375 118.54296875 C-92.89971889 114.8354372 -90.6736413 113.52678895 -86.45703125 112.43359375 C-82.19066139 112.28647755 -80.31081877 112.85762981 -76.83203125 115.30859375 C-74.04037237 119.98061036 -72.8941856 124.59273023 -71.81640625 129.8515625 C-71.63961838 130.68128571 -71.46283051 131.51100891 -71.28068542 132.36587524 C-70.70608819 135.07425778 -70.14367919 137.78499881 -69.58203125 140.49609375 C-69.18739643 142.37404006 -68.79229062 144.25188746 -68.39672852 146.12963867 C-67.19491535 151.85317417 -66.01225435 157.58057429 -64.83203125 163.30859375 C-64.46537825 165.08106425 -64.09868034 166.85352546 -63.73193359 168.62597656 C-62.89086402 172.69811187 -62.05723847 176.77169554 -61.23083496 180.84683228 C-60.92501479 182.35454838 -60.6179809 183.86201885 -60.30969238 185.36923218 C-59.88358462 187.45869577 -59.46414502 189.54938095 -59.046875 191.640625 C-58.810896 192.81343018 -58.57491699 193.98623535 -58.33178711 195.19458008 C-57.88599615 197.97233468 -57.72980816 200.50386832 -57.83203125 203.30859375 C-57.17203125 203.30859375 -56.51203125 203.30859375 -55.83203125 203.30859375 C-55.75855469 202.13103516 -55.75855469 202.13103516 -55.68359375 200.9296875 C-55.57144531 199.35380859 -55.57144531 199.35380859 -55.45703125 197.74609375 C-55.38742188 196.71355469 -55.3178125 195.68101562 -55.24609375 194.6171875 C-54.79528408 191.01496306 -53.84462968 187.7948255 -52.83203125 184.30859375 C-52.0552666 180.7588287 -51.3789104 177.19200699 -50.70703125 173.62109375 C-50.52527344 172.68458984 -50.34351562 171.74808594 -50.15625 170.78320312 C-49.98480469 169.88021484 -49.81335938 168.97722656 -49.63671875 168.046875 C-49.48187012 167.23259033 -49.32702148 166.41830566 -49.16748047 165.5793457 C-48.73460455 163.0316504 -48.73460455 163.0316504 -48.83203125 159.30859375 C-48.17203125 159.30859375 -47.51203125 159.30859375 -46.83203125 159.30859375 C-46.79078125 158.58671875 -46.74953125 157.86484375 -46.70703125 157.12109375 C-45.72037428 153.94969636 -44.36186566 152.21527529 -41.7109375 150.203125 C-38.68357088 148.76182156 -36.20486503 148.94729862 -32.95703125 149.55078125 C-30.18861969 150.53804567 -28.30822894 151.9717583 -26.62386703 154.3928957 C-23.8747814 161.04379237 -26.2152165 169.67311273 -27.60449219 176.45239258 C-27.79313843 177.41142487 -27.98178467 178.37045715 -28.17614746 179.35855103 C-28.79631549 182.49631044 -29.43063034 185.6309937 -30.06640625 188.765625 C-30.50565912 190.95887278 -30.94447461 193.1522082 -31.38287354 195.34562683 C-32.30107342 199.92700384 -33.22669981 204.50680486 -34.15722656 209.08569336 C-35.34828331 214.95123993 -36.51732395 220.82093231 -37.68047714 226.69206715 C-38.57982257 231.21596602 -39.49242266 235.73711417 -40.40888214 240.25757408 C-40.84553524 242.42120276 -41.27767611 244.5857472 -41.70519257 246.75119972 C-42.30376195 249.77435618 -42.92049663 252.7932531 -43.54199219 255.81176758 C-43.80094269 257.14982201 -43.80094269 257.14982201 -44.06512451 258.51490784 C-45.09246714 263.3945472 -46.18749499 266.68047908 -49.83203125 270.30859375 C-53.99623546 272.78460707 -57.20068557 272.46643017 -61.83203125 271.30859375 C-66.35732787 268.59341578 -67.42142941 266.27460595 -68.83203125 261.30859375 C-69.35400892 258.64131521 -69.83590663 255.9896328 -70.26953125 253.30859375 C-71.53210147 245.58375581 -73.16081724 237.95469092 -74.83203125 230.30859375 C-84.08756215 187.78997069 -84.08756215 187.78997069 -83.83203125 180.30859375 C-84.49203125 179.97859375 -85.15203125 179.64859375 -85.83203125 179.30859375 C-86.2109375 177.41796875 -86.2109375 177.41796875 -86.39453125 175.05859375 C-86.66732146 171.740574 -87.13329469 168.56551459 -87.83203125 165.30859375 C-88.21875 166.29859375 -88.60546875 167.28859375 -89.00390625 168.30859375 C-90.58098896 172.32192374 -92.1958326 176.31903145 -93.83203125 180.30859375 C-94.1878125 181.17871094 -94.54359375 182.04882812 -94.91015625 182.9453125 C-97.05381369 187.71404197 -99.26628582 189.83963153 -103.83203125 192.30859375 C-106.64546719 192.9065999 -109.39926146 193.00363645 -112.26953125 193.05859375 C-112.97529297 193.08824219 -113.68105469 193.11789063 -114.40820312 193.1484375 C-116.88328495 193.23938539 -119.35543602 193.27882645 -121.83203125 193.30859375 C-123.48851685 193.33276367 -123.48851685 193.33276367 -125.1784668 193.35742188 C-134.75113947 193.43337035 -144.2237148 192.95946969 -153.76953125 192.30859375 C-155.24280931 192.21179365 -156.71611661 192.11543758 -158.18945312 192.01953125 C-161.73741662 191.78844547 -165.28460285 191.54837165 -168.83203125 191.30859375 C-168.83203125 184.04859375 -168.83203125 176.78859375 -168.83203125 169.30859375 C-163.88203125 169.30859375 -158.93203125 169.30859375 -153.83203125 169.30859375 C-154.01765625 168.21546875 -154.20328125 167.12234375 -154.39453125 165.99609375 C-155.36711026 158.11820378 -153.96439258 150.4073336 -152.296875 142.71484375 C-151.84258061 140.36320222 -151.59466088 138.06881224 -151.39453125 135.68359375 C-151.02529114 131.91866336 -150.01305089 128.87152177 -148.578125 125.390625 C-147.76335014 123.11693391 -147.35572555 120.9393683 -146.95703125 118.55859375 C-146.01495455 113.35704207 -144.09406984 108.78819389 -141.953125 103.97265625 C-141.01242098 101.73725506 -140.33080846 99.67358232 -139.83203125 97.30859375 C-139.17203125 97.30859375 -138.51203125 97.30859375 -137.83203125 97.30859375 C-137.58453125 96.50421875 -137.33703125 95.69984375 -137.08203125 94.87109375 C-134.61024115 87.82649198 -131.61925194 81.66417312 -127.3515625 75.52734375 C-125.40033163 72.67824571 -123.65287683 69.72223969 -121.91015625 66.7421875 C-121.554375 66.26910156 -121.19859375 65.79601562 -120.83203125 65.30859375 C-120.17203125 65.30859375 -119.51203125 65.30859375 -118.83203125 65.30859375 C-118.58453125 64.77234375 -118.33703125 64.23609375 -118.08203125 63.68359375 C-115.3327381 58.45993677 -112.08980473 54.37283207 -107.83203125 50.30859375 C-106.45433253 48.93629777 -105.07951525 47.56110516 -103.70703125 46.18359375 C-102.41536458 44.89192708 -101.12369792 43.60026042 -99.83203125 42.30859375 C-99.29835938 41.73367187 -98.7646875 41.15875 -98.21484375 40.56640625 C-96.83203125 39.30859375 -96.83203125 39.30859375 -94.83203125 39.30859375 C-94.83203125 38.64859375 -94.83203125 37.98859375 -94.83203125 37.30859375 C-93.171875 35.93359375 -93.171875 35.93359375 -90.76953125 34.30859375 C-89.85300781 33.68855469 -88.93648438 33.06851563 -87.9921875 32.4296875 C-86.94933594 31.72972656 -85.90648438 31.02976562 -84.83203125 30.30859375 C-83.68392567 29.50920407 -82.53682642 28.70836756 -81.390625 27.90625 C-57.53098079 11.37469571 -29.25347192 0.45919884 0 0 Z " fill="#3EA4C6" transform="translate(168.83203125,-0.30859375)"/>
<path d="M0 0 C1.24716797 0.00644531 2.49433594 0.01289063 3.77929688 0.01953125 C5.07287109 0.03628906 6.36644531 0.05304688 7.69921875 0.0703125 C9.01212891 0.07933594 10.32503906 0.08835938 11.67773438 0.09765625 C14.91414062 0.12119375 18.15045294 0.15706379 21.38671875 0.1953125 C21.38671875 8.1153125 21.38671875 16.0353125 21.38671875 24.1953125 C15.77671875 23.8653125 10.16671875 23.5353125 4.38671875 23.1953125 C4.28488281 24.4740625 4.18304688 25.7528125 4.078125 27.0703125 C3.48357757 32.36436957 2.04694345 37.16936444 0.32421875 42.1953125 C0.01403809 43.10667969 -0.29614258 44.01804688 -0.61572266 44.95703125 C-5.5161624 58.99044232 -11.72720155 71.28549735 -20.61328125 83.1953125 C-22.11543279 85.23539669 -23.61555085 87.27698031 -25.11328125 89.3203125 C-25.76296875 90.18914062 -26.41265625 91.05796875 -27.08203125 91.953125 C-31.01431358 97.71110983 -30.36860284 105.48524626 -29.61328125 112.1953125 C-27.77548639 119.65325183 -24.90421233 126.11953188 -20.62890625 132.46484375 C-18.91950276 135.37740432 -18.61328125 137.85863952 -18.61328125 141.1953125 C-19.86675639 145.02947175 -20.91379532 146.71233412 -24.23828125 149.0078125 C-32.57027906 151.93944136 -40.63247856 151.09771178 -49.23828125 150.0703125 C-50.38167969 149.93778076 -51.52507812 149.80524902 -52.703125 149.66870117 C-61.56502871 148.54277272 -69.30755986 146.39858615 -77.61328125 143.1953125 C-78.27328125 143.1953125 -78.93328125 143.1953125 -79.61328125 143.1953125 C-79.61328125 142.5353125 -79.61328125 141.8753125 -79.61328125 141.1953125 C-80.93328125 141.1953125 -82.25328125 141.1953125 -83.61328125 141.1953125 C-83.61328125 140.5353125 -83.61328125 139.8753125 -83.61328125 139.1953125 C-87.24328125 138.8653125 -90.87328125 138.5353125 -94.61328125 138.1953125 C-94.61328125 138.8553125 -94.61328125 139.5153125 -94.61328125 140.1953125 C-95.17273438 140.30488281 -95.7321875 140.41445313 -96.30859375 140.52734375 C-97.11039062 140.68589844 -97.9121875 140.84445312 -98.73828125 141.0078125 C-100.12660156 141.28044922 -100.12660156 141.28044922 -101.54296875 141.55859375 C-103.57636883 141.9802785 -105.60308769 142.43569406 -107.62109375 142.92578125 C-118.51416052 145.51124409 -129.46118034 146.45562121 -140.61328125 147.1953125 C-141.83917969 147.28167969 -143.06507813 147.36804688 -144.328125 147.45703125 C-154.66338776 147.8203314 -164.76738572 145.69448862 -174.86938477 143.7253418 C-176.72066705 143.3677358 -178.57556904 143.02844708 -180.43334961 142.70629883 C-181.32159424 142.54669678 -182.20983887 142.38709473 -183.125 142.22265625 C-183.91608154 142.08593506 -184.70716309 141.94921387 -185.5222168 141.80834961 C-189.34814424 140.68670293 -190.714257 138.56454908 -192.61328125 135.1953125 C-193.80373005 131.43564652 -194.49276903 128.01214911 -192.72265625 124.35546875 C-190.20442028 121.09610637 -187.65210329 118.92964378 -183.61328125 118.1953125 C-180.52834159 118.73395276 -177.63427585 119.40647316 -174.61328125 120.1953125 C-172.28280025 120.72876364 -169.94922055 121.24879444 -167.61328125 121.7578125 C-166.49953125 122.00660156 -165.38578125 122.25539063 -164.23828125 122.51171875 C-140.782775 126.9349015 -118.65791228 123.61448541 -96.61328125 115.1953125 C-91.62429253 113.37840916 -87.77316791 112.60195432 -82.61328125 114.1953125 C-81.0634799 115.06210405 -79.54408342 115.98444808 -78.05078125 116.9453125 C-69.28062294 122.57553759 -58.76864232 125.23550598 -48.61328125 127.1953125 C-49.06703125 126.2878125 -49.52078125 125.3803125 -49.98828125 124.4453125 C-54.00302132 114.92464319 -53.86906689 105.27965172 -52.61328125 95.1953125 C-52.53335938 94.08027344 -52.4534375 92.96523438 -52.37109375 91.81640625 C-51.40145876 87.18315039 -49.38473086 83.98135497 -46.80078125 80.0703125 C-46.36185547 79.38066406 -45.92292969 78.69101563 -45.47070312 77.98046875 C-43.54600919 74.98904251 -41.58706768 72.16280587 -39.3515625 69.390625 C-37.43368696 67.22486152 -37.43368696 67.22486152 -36.61328125 64.1953125 C-35.95328125 64.1953125 -35.29328125 64.1953125 -34.61328125 64.1953125 C-34.36578125 63.5353125 -34.11828125 62.8753125 -33.86328125 62.1953125 C-32.90841567 59.90363512 -31.90050206 57.75680732 -30.76953125 55.5546875 C-28.60989303 51.25899219 -26.70135958 46.88667774 -24.86328125 42.4453125 C-24.54746094 41.70410156 -24.23164063 40.96289062 -23.90625 40.19921875 C-23.60847656 39.48121094 -23.31070313 38.76320312 -23.00390625 38.0234375 C-22.73610352 37.3830957 -22.46830078 36.74275391 -22.19238281 36.08300781 C-21.41775699 33.88705038 -21.41775699 33.88705038 -21.61328125 30.1953125 C-20.95328125 30.1953125 -20.29328125 30.1953125 -19.61328125 30.1953125 C-19.57589844 29.62425781 -19.53851563 29.05320313 -19.5 28.46484375 C-17.88582373 8.55666974 -17.88582373 8.55666974 -11.61328125 2.1953125 C-7.65881338 0.19073754 -4.40063022 -0.0401884 0 0 Z " fill="#24A5AC" transform="translate(339.61328125,168.8046875)"/>
<path d="M0 0 C4.61787856 4.51196391 6.31198934 8.98184057 8.1875 15.0625 C13.7982771 32.01110055 21.47916576 47.57397475 32 62 C32.61617187 62.84691406 33.23234375 63.69382812 33.8671875 64.56640625 C38.23065713 70.34750081 43.06074201 75.70852295 48 81 C48.72574219 81.79148437 49.45148438 82.58296875 50.19921875 83.3984375 C77.54667623 112.09237421 114.19829842 126.75942995 153.17919922 129.97558594 C154.79785889 130.11722168 154.79785889 130.11722168 156.44921875 130.26171875 C157.87754028 130.36939575 157.87754028 130.36939575 159.3347168 130.47924805 C163.21987577 131.23834341 165.94005304 133.01315283 168.8125 135.6875 C170.57066682 139.11129854 170.77565806 142.29249678 170 146 C168.02321824 149.52185256 165.9012851 151.69957163 162 153 C155.76162624 153.39571774 149.55131553 152.86143125 143.34765625 152.21875 C140.89512743 151.95361192 140.89512743 151.95361192 138 152 C136.07894183 151.50317461 134.15802732 151.00577771 132.23828125 150.50390625 C129.28048349 149.83801461 126.33432305 149.57395517 123.3203125 149.28515625 C119.48467919 148.81377371 115.7512008 147.91341296 112 147 C112 146.34 112 145.68 112 145 C109.69 145 107.38 145 105 145 C105 144.67 105 144.34 105 144 C103.824375 143.62875 103.824375 143.62875 102.625 143.25 C82.08333333 136.16666667 82.08333333 136.16666667 80 132 C79.154375 131.731875 78.30875 131.46375 77.4375 131.1875 C74.49604575 130.17136126 72.55794365 129.17420112 70 127.5 C66.75903531 125.38066936 63.68852706 124.20091579 60 123 C58.125 121.5 58.125 121.5 57 120 C57 119.34 57 118.68 57 118 C56.43410156 117.7421875 55.86820312 117.484375 55.28515625 117.21875 C43.41719307 110.88916964 32.58761589 99.13477746 24 89 C23.58524414 88.51547363 23.17048828 88.03094727 22.74316406 87.53173828 C21.36548218 85.92114608 19.99479253 84.30480455 18.625 82.6875 C18.17189453 82.15979004 17.71878906 81.63208008 17.25195312 81.08837891 C14 77.22761832 14 77.22761832 14 75 C12.515 74.505 12.515 74.505 11 74 C11 73.01 11 72.02 11 71 C10.34 71 9.68 71 9 71 C8.20724852 69.5839401 7.41584688 68.16712447 6.625 66.75 C5.96371094 65.56664062 5.96371094 65.56664062 5.2890625 64.359375 C4.47487888 62.86917226 3.69379411 61.35996062 2.9609375 59.828125 C2.02406285 57.82612687 2.02406285 57.82612687 0 56 C-0.92187051 54.18978154 -1.79137003 52.35251105 -2.625 50.5 C-3.07101563 49.5203125 -3.51703125 48.540625 -3.9765625 47.53125 C-5 45 -5 45 -5 43 C-5.66 42.67 -6.32 42.34 -7 42 C-7.88730861 39.84176092 -8.68553586 37.64654107 -9.4375 35.4375 C-10.81381934 31.43218775 -12.19130659 27.43896414 -13.75 23.5 C-15.84062757 17.64624279 -16.48950498 12.16776275 -16 6 C-12.26924874 -0.12909135 -7.04457845 -2.93852062 0 0 Z " fill="#46A4CD" transform="translate(36,205)"/>
<path d="M0 0 C2.92494587 2.23433365 4.86762352 5.0248271 7 8 C14.61666807 17.39854913 23.77193679 25.69828621 36.28662109 27.29101562 C50.6290136 28.41147083 62.879072 26.23217613 74.1953125 16.78125 C76.60947018 14.39844502 78.23931459 11.88752406 80 9 C80.66 9 81.32 9 82 9 C82.226875 8.2575 82.45375 7.515 82.6875 6.75 C84.34868701 3.26941769 85.64423922 1.92777747 89 0 C92.83547617 -0.76426462 96.27517668 -0.77814274 99.87890625 0.84765625 C103.02382059 3.08319777 104.03599272 5.11366123 105.1875 8.75 C105.53762665 16.22870524 100.3379127 21.80563712 95.6875 27.125 C92.19653023 30.87283042 88.54887646 34.33064119 84.62890625 37.625 C82.89099423 39.05285575 82.89099423 39.05285575 81 41 C65.168022 50.25680798 46.07149791 53.50309036 28 50 C28 49.34 28 48.68 28 48 C25.03 47.67 22.06 47.34 19 47 C19 46.34 19 45.68 19 45 C17.88625 44.87625 16.7725 44.7525 15.625 44.625 C12 44 12 44 10 42 C9.34 41.67 8.68 41.34 8 41 C8 40.34 8 39.68 8 39 C7.278125 38.7525 6.55625 38.505 5.8125 38.25 C-3.27192447 34.21247801 -10.80690948 24.88491869 -15 16 C-15.33 15.34 -15.66 14.68 -16 14 C-16.54724071 8.30869663 -15.59333707 5.43882815 -12 1 C-8.18452729 -0.90773636 -4.12523496 -0.85114035 0 0 Z " fill="#33A7B5" transform="translate(177,172)"/>
<path d="M0 0 C4.86990814 4.54596746 7.60385579 8.83084631 8.4375 15.5 C8 19 8 19 5.8125 21.875 C3.00210936 23.99840626 1.47954074 24.81191672 -2 25 C-5.2004264 23.3997868 -7.48811709 21.16026792 -8.9375 17.875 C-9.91233382 15.79345252 -9.91233382 15.79345252 -12.3125 14.625 C-14.96869165 13.82446561 -14.96869165 13.82446561 -17.5625 14.4375 C-21.05076796 16.67356921 -22.07447256 19.34813761 -24 23 C-26.85324437 24.42662219 -28.83454549 24.31033868 -32 24 C-35.26685177 22.11248565 -36.67179085 20.8301761 -38.0625 17.3125 C-37.94238647 10.94648282 -35.0651292 5.82151922 -30.875 1.125 C-22.09901223 -6.93840757 -9.49170815 -6.65418698 0 0 Z " fill="#27A6AB" transform="translate(274,121)"/>
<path d="M0 0 C4.67455702 4.67455702 7.4503583 9.56473938 8.5 16.125 C7.80794914 20.10429244 6.1140352 21.52292654 3 24 C1 25 1 25 -1 25 C-5.14608132 23.1342634 -7.25811256 20.53791927 -10 17 C-11.7484395 14.97891823 -11.7484395 14.97891823 -14 14 C-17.15625345 14.27379121 -17.15625345 14.27379121 -20 16 C-21.72512465 18.95009373 -21.72512465 18.95009373 -23 22 C-26.51824511 24.34549674 -27.85775694 24.57991403 -32 24 C-35.34263569 21.54873382 -36.74131345 19.69436917 -38.1875 15.8125 C-37.91706318 10.31361802 -35.39724834 6.27451247 -32 2 C-31.34 2 -30.68 2 -30 2 C-30 1.34 -30 0.68 -30 0 C-19.70535447 -5.49218062 -10.16712105 -6.98572431 0 0 Z " fill="#46A8C3" transform="translate(198,121)"/>
<path d="M0 0 C2.92776342 2.23648594 4.85262932 5.03290702 7 8 C8.27811913 9.4702212 9.56944279 10.92908877 10.875 12.375 C12.53877179 14.24767587 13.88020774 15.76041548 15 18 C11.55835531 16.47038014 8.90848242 14.37270934 6 12 C5.34 11.67 4.68 11.34 4 11 C3.375 8.4375 3.375 8.4375 3 6 C2.01 6 1.02 6 0 6 C0 4.68 0 3.36 0 2 C-1.43861294 2.08746284 -2.87597508 2.19565348 -4.3125 2.3125 C-5.11300781 2.37050781 -5.91351563 2.42851562 -6.73828125 2.48828125 C-9.43528462 3.09848409 -10.3865426 3.77189216 -12 6 C-12.5346466 11.52468151 -12.26031907 14.38121465 -9 19 C-9 19.66 -9 20.32 -9 21 C-8.34 21 -7.68 21 -7 21 C-7 21.66 -7 22.32 -7 23 C-6.360625 23.2475 -5.72125 23.495 -5.0625 23.75 C-3 25 -3 25 -2.4375 27.0625 C-2.293125 27.701875 -2.14875 28.34125 -2 29 C-1.01 29.33 -0.02 29.66 1 30 C1.33 31.65 1.66 33.3 2 35 C-5.71152526 31.85826749 -11.53264346 23.34712994 -15 16 C-15.33 15.34 -15.66 14.68 -16 14 C-16.54724071 8.30869663 -15.59333707 5.43882815 -12 1 C-8.18452729 -0.90773636 -4.12523496 -0.85114035 0 0 Z " fill="#78BAC8" transform="translate(177,172)"/>
<path d="M0 0 C1.68580281 0.38255737 3.37326582 0.75789084 5.0625 1.125 C6.375 1.41666667 7.6875 1.70833333 9 2 C9 2.33 9 2.66 9 3 C4.28153634 3.07489625 -0.09448896 3.02461444 -4.75 2.25 C-8.14502382 1.83452506 -8.83019293 1.90802117 -12 3.625 C-14.24772091 6.29416858 -14.8352624 7.54051033 -15 11 C-14.68834559 13.00349261 -14.35738234 15.00415708 -14 17 C-11.48025747 17.65035371 -8.95934065 18.29537493 -6.4375 18.9375 C-5.73302734 19.11990234 -5.02855469 19.30230469 -4.30273438 19.49023438 C0.12137098 20.6115514 4.47055438 21.43456329 9 22 C9 22.66 9 23.32 9 24 C9.66 24.33 10.32 24.66 11 25 C2.45727174 24.4519046 -7.5667716 23.59302104 -15 19 C-17.42049287 15.50373252 -18.79803577 13.09958303 -19.5625 8.9375 C-18.77455056 4.82265291 -16.96691275 2.90098135 -14 0 C-9.29507497 -3.13661669 -5.08205692 -1.35848865 0 0 Z " fill="#7BBBCB" transform="translate(165,289)"/>
<path d="M0 0 C-1.98 0.33 -3.96 0.66 -6 1 C-6 1.66 -6 2.32 -6 3 C-19.10730198 6.56859763 -37.31490542 10.41805381 -50 4 C-52.66353755 3.48479018 -55.29499131 3.27050087 -58 3 C-57.34 2.34 -56.68 1.68 -56 1 C-53.4453125 1.0234375 -53.4453125 1.0234375 -50.125 1.375 C-36.47913914 2.51913148 -23.20848348 2.70432999 -9.73535156 -0.02050781 C-3.31071134 -1.30186826 -3.31071134 -1.30186826 0 0 Z " fill="#69B4C3" transform="translate(230,291)"/>
<path d="M0 0 C0.66 0 1.32 0 2 0 C1.06306282 3.37297383 0.16543884 4.86259736 -2.55859375 7.125 C-6.73446224 9.40016104 -9.76724547 9.66057824 -14.4375 9.75 C-15.14326172 9.77964844 -15.84902344 9.80929688 -16.57617188 9.83984375 C-19.0512537 9.93079164 -21.52340477 9.9702327 -24 10 C-25.6564856 10.02416992 -25.6564856 10.02416992 -27.34643555 10.04882812 C-36.91910822 10.1247766 -46.39168355 9.65087594 -55.9375 9 C-57.41077806 8.9031999 -58.88408536 8.80684383 -60.35742188 8.7109375 C-63.90529785 8.47904652 -67.45274682 8.241253 -71 8 C-71 7.67 -71 7.34 -71 7 C-49.22 7 -27.44 7 -5 7 C-5 6.34 -5 5.68 -5 5 C-3.625 3.375 -3.625 3.375 -2 2 C-1.34 2 -0.68 2 0 2 C0 1.34 0 0.68 0 0 Z " fill="#B7D6E2" transform="translate(71,183)"/>
<path d="M0 0 C2.40288121 3.03276269 4.40516717 6.23412686 6.41235352 9.53271484 C14.92041669 23.4929104 25.27417456 35.61350713 37 47 C34 47 34 47 32.31640625 45.5390625 C31.73761719 44.90742188 31.15882812 44.27578125 30.5625 43.625 C28.19797932 41.05417885 26.21522145 39.39915131 23 38 C23 37.01 23 36.02 23 35 C22.15695313 34.67322266 22.15695313 34.67322266 21.296875 34.33984375 C18.24234321 32.55803354 16.4754938 30.30073012 14.25 27.5625 C13.05117187 26.11037109 13.05117187 26.11037109 11.828125 24.62890625 C10 22 10 22 10 19 C9.01 18.67 8.02 18.34 7 18 C6.67 16.35 6.34 14.7 6 13 C5.34 13 4.68 13 4 13 C0.75400216 8.84512277 0.43173627 5.09448798 0 0 Z " fill="#8DC4D7" transform="translate(54,246)"/>
<path d="M0 0 C0.66 0 1.32 0 2 0 C1.67 0.99 1.34 1.98 1 3 C0.34 3 -0.32 3 -1 3 C-1.04125 3.5775 -1.0825 4.155 -1.125 4.75 C-2 7 -2 7 -4.875 8.75 C-8.36909929 11.26575149 -8.66337342 12.72919459 -9.890625 16.6953125 C-12.27925146 21.65759987 -16.74840379 25.58753462 -21 29 C-21.99 29 -22.98 29 -24 29 C-24 29.66 -24 30.32 -24 31 C-24.99 31.33 -25.98 31.66 -27 32 C-26.67 30.68 -26.34 29.36 -26 28 C-25.34 28 -24.68 28 -24 28 C-23.7525 27.46375 -23.505 26.9275 -23.25 26.375 C-20.50070685 21.15134302 -17.25777348 17.06423832 -13 13 C-11.62230128 11.62770402 -10.247484 10.25251141 -8.875 8.875 C-6.9375 6.9375 -6.9375 6.9375 -5 5 C-4.46632813 4.42507812 -3.93265625 3.85015625 -3.3828125 3.2578125 C-2 2 -2 2 0 2 C0 1.34 0 0.68 0 0 Z " fill="#71B3D1" transform="translate(74,37)"/>
<path d="M0 0 C1.01684372 -0.00108765 1.01684372 -0.00108765 2.05422974 -0.00219727 C8.73068612 -0.00138965 15.14465167 0.13607706 21.75 1.1875 C21.75 1.8475 21.75 2.5075 21.75 3.1875 C23.07 3.5175 24.39 3.8475 25.75 4.1875 C23.25331711 5.43584144 21.93670849 5.13905125 19.1875 4.8125 C18.38183594 4.72226562 17.57617188 4.63203125 16.74609375 4.5390625 C14.75 4.1875 14.75 4.1875 13.75 3.1875 C12.76 3.1875 11.77 3.1875 10.75 3.1875 C7.89905049 3.1875 5.500719 3.05605401 2.72265625 2.66796875 C-2.81921657 2.02725704 -8.25044611 2.23444739 -13.8125 2.5 C-14.80185547 2.53544922 -15.79121094 2.57089844 -16.81054688 2.60742188 C-21.29770487 2.80691729 -25.4921975 3.12686196 -29.83984375 4.29296875 C-33.25 5.1875 -33.25 5.1875 -35.25 4.1875 C-35.25 3.5275 -35.25 2.8675 -35.25 2.1875 C-23.50051321 0.5111401 -11.85483771 -0.01253283 0 0 Z " fill="#B6DDE6" transform="translate(186.25,19.8125)"/>
<path d="M0 0 C0.33 0 0.66 0 1 0 C0.74883788 5.76417073 0.4748791 9.89802749 -4 14 C-8.16420421 16.47601332 -11.36865432 16.15783642 -16 15 C-19.53005842 12.88196495 -20.7629255 11.58704162 -22.3125 7.75 C-22.539375 6.8425 -22.76625 5.935 -23 5 C-22.34 4.34 -21.68 3.68 -21 3 C-20.4225 4.11375 -19.845 5.2275 -19.25 6.375 C-18.02230079 8.48084518 -17.10974411 9.90593362 -15.25 11.5 C-11.69563428 12.28985905 -8.57878525 11.59646421 -5 11 C-4.690625 10.21625 -4.38125 9.4325 -4.0625 8.625 C-3 6 -3 6 -2 4 C-1.34 4 -0.68 4 0 4 C0 2.68 0 1.36 0 0 Z " fill="#80BCCF" transform="translate(123,256)"/>
<path d="M0 0 C1.32 0.33 2.64 0.66 4 1 C3.34515625 1.6084375 2.6903125 2.216875 2.015625 2.84375 C-5.50441969 10.06639179 -11.682667 17.88435699 -17.73242188 26.36523438 C-19.04195123 28.05410351 -20.4591091 29.52191106 -22 31 C-21.67 28.69 -21.34 26.38 -21 24 C-20.34 24 -19.68 24 -19 24 C-18.896875 23.360625 -18.79375 22.72125 -18.6875 22.0625 C-18.460625 21.381875 -18.23375 20.70125 -18 20 C-17.01 19.67 -16.02 19.34 -15 19 C-14.63451555 17.67511887 -14.3062434 16.33981486 -14 15 C-12.625 12.75 -12.625 12.75 -11 11 C-10.01 11 -9.02 11 -8 11 C-7.87625 10.195625 -7.7525 9.39125 -7.625 8.5625 C-7.41875 7.716875 -7.2125 6.87125 -7 6 C-5 5 -5 5 -2 4 C-2 3.34 -2 2.68 -2 2 C-1.34 2 -0.68 2 0 2 C0 1.34 0 0.68 0 0 Z " fill="#7BB8D0" transform="translate(82,57)"/>
<path d="M0 0 C0.33 0 0.66 0 1 0 C0.31542429 9.54549235 -1.64126529 18.76925794 -3.5625 28.125 C-3.8956321 29.76553373 -4.22831805 31.40615811 -4.56054688 33.046875 C-5.36855756 37.03231398 -6.18259766 41.01647709 -7 45 C-7.33 45 -7.66 45 -8 45 C-7.93941406 44.16339844 -7.87882812 43.32679688 -7.81640625 42.46484375 C-7.73261719 41.30082031 -7.64882812 40.13679688 -7.5625 38.9375 C-7.46839844 37.66261719 -7.37429687 36.38773438 -7.27734375 35.07421875 C-7.08729803 32.40909943 -6.94152565 29.75213254 -6.81640625 27.08203125 C-5.90866416 8.90866416 -5.90866416 8.90866416 -1 4 C-0.3574765 1.93125966 -0.3574765 1.93125966 0 0 Z " fill="#92C7D6" transform="translate(132,210)"/>
<path d="M0 0 C-8.42857143 3.28571429 -8.42857143 3.28571429 -13 4 C-13 4.66 -13 5.32 -13 6 C-13.89138672 6.16435547 -13.89138672 6.16435547 -14.80078125 6.33203125 C-20.45542388 7.4137125 -25.96240003 8.77959958 -31.50390625 10.3359375 C-34.31464016 11.08370709 -37.11805389 11.61054782 -40 12 C-36.6016821 9.10799714 -32.8900327 7.58374691 -28.75 6.0625 C-28.05487305 5.80525146 -27.35974609 5.54800293 -26.64355469 5.28295898 C-21.57543858 3.45836891 -16.46560467 1.90629801 -11.25 0.5625 C-10.58323242 0.38662354 -9.91646484 0.21074707 -9.22949219 0.02954102 C-5.85292297 -0.79292326 -3.29598129 -1.27344732 0 0 Z " fill="#83BFD2" transform="translate(151,3)"/>
<path d="M0 0 C3.21360968 3.6922324 4.72179285 7.86211876 6.4375 12.375 C6.89491577 13.56851074 6.89491577 13.56851074 7.36157227 14.78613281 C14.32676761 33.26876956 14.32676761 33.26876956 14 42 C13.67 42 13.34 42 13 42 C12.34 38.04 11.68 34.08 11 30 C10.34 30 9.68 30 9 30 C8.36771484 28.28490234 8.36771484 28.28490234 7.72265625 26.53515625 C7.16941479 25.04421741 6.61602153 23.55333489 6.0625 22.0625 C5.78470703 21.30775391 5.50691406 20.55300781 5.22070312 19.77539062 C4.08246549 16.11220861 4.08246549 16.11220861 2 13 C1.95936168 11.33382885 1.957279 9.66611905 2 8 C1.34 8 0.68 8 0 8 C0 5.36 0 2.72 0 0 Z " fill="#76BFC3" transform="translate(330,93)"/>
<path d="M0 0 C-3 2 -3 2 -6.625 3 C-7.73875 3.33 -8.8525 3.66 -10 4 C-10.33 4.66 -10.66 5.32 -11 6 C-14.27135633 7.72530437 -17.57968719 9.32141678 -20.921875 10.90234375 C-25.05939225 12.9026508 -28.44414626 15.04531578 -32 18 C-32.99 18.33 -33.98 18.66 -35 19 C-35 17.68 -35 16.36 -35 15 C-33.35 14.67 -31.7 14.34 -30 14 C-30 13.34 -30 12.68 -30 12 C-29.01 12 -28.02 12 -27 12 C-27 11.34 -27 10.68 -27 10 C-23.77208445 7.8480563 -22.71599191 7.79913557 -19 8 C-19 7.34 -19 6.68 -19 6 C-18.01 6 -17.02 6 -16 6 C-16 5.34 -16 4.68 -16 4 C-5.62642369 -0.59225513 -5.62642369 -0.59225513 0 0 Z " fill="#83BDD0" transform="translate(133,29)"/>
<path d="M0 0 C8.28965172 0.42473481 16.29674509 1.46818618 24.4597168 2.91333008 C28.70724751 3.65489043 32.87910256 4.2155391 37.1875 4.5 C41.69522422 4.82694913 44.98347205 5.94710794 49 8 C48.67 8.66 48.34 9.32 48 10 C47.33484375 9.68675781 46.6696875 9.37351562 45.984375 9.05078125 C42.4200865 7.7958158 38.98445361 7.49486588 35.25 7.1875 C23.33697299 6.05618004 11.6907964 3.48589231 0 1 C0 0.67 0 0.34 0 0 Z " fill="#48A0B7" transform="translate(153,332)"/>
<path d="M0 0 C4.06410939 0.24944451 8.12568586 0.52828491 12.1875 0.8125 C13.91323242 0.91788086 13.91323242 0.91788086 15.67382812 1.02539062 C16.78564453 1.10595703 17.89746094 1.18652344 19.04296875 1.26953125 C20.06414795 1.33760986 21.08532715 1.40568848 22.13745117 1.47583008 C26.14761342 2.21014294 28.8546809 3.93366843 31.8125 6.6875 C33.66934158 10.30345465 33.38561204 12.95107356 33 17 C31.4765625 18.74609375 31.4765625 18.74609375 30 20 C29.93941406 19.40832031 29.87882812 18.81664062 29.81640625 18.20703125 C29.37987629 14.09021792 28.91328654 10.04455467 28 6 C22.00187136 3.6516299 16.07721072 3.30685944 9.72460938 2.7890625 C8.90412109 2.71429688 8.08363281 2.63953125 7.23828125 2.5625 C6.1251355 2.47162109 6.1251355 2.47162109 4.98950195 2.37890625 C3 2 3 2 0 0 Z " fill="#8DC7D3" transform="translate(173,334)"/>
<path d="M0 0 C1.98 0 3.96 0 6 0 C6.66 1.32 7.32 2.64 8 4 C9.32 4 10.64 4 12 4 C12 4.99 12 5.98 12 7 C11.01 7 10.02 7 9 7 C9 6.34 9 5.68 9 5 C3.555 4.505 3.555 4.505 -2 4 C-2 4.66 -2 5.32 -2 6 C-7.65146223 7.17122859 -13.27601207 8.25339288 -19 9 C-18.67 8.01 -18.34 7.02 -18 6 C-16.23413086 5.29223633 -16.23413086 5.29223633 -13.96484375 4.83203125 C-13.15595703 4.66123047 -12.34707031 4.49042969 -11.51367188 4.31445312 C-10.2384668 4.06598633 -10.2384668 4.06598633 -8.9375 3.8125 C-8.08349609 3.63525391 -7.22949219 3.45800781 -6.34960938 3.27539062 C-4.23549105 2.8383941 -2.11802166 2.41766794 0 2 C0 1.34 0 0.68 0 0 Z " fill="#66B0BA" transform="translate(247,303)"/>
<path d="M0 0 C1.40145421 4.20436264 -0.11084146 7.22336846 -1.5 11.25 C-1.9024292 12.43988525 -1.9024292 12.43988525 -2.31298828 13.65380859 C-4.99560162 21.3692077 -8.35917298 28.6968026 -12 36 C-12.33 36 -12.66 36 -13 36 C-13 33.69 -13 31.38 -13 29 C-12.34 29 -11.68 29 -11 29 C-10.87625 27.88625 -10.7525 26.7725 -10.625 25.625 C-10 22 -10 22 -8 20 C-7.14458599 17.42948089 -6.47263076 14.83382414 -5.78125 12.21484375 C-5 10 -5 10 -3 9 C-2.09274566 6.88672575 -2.09274566 6.88672575 -1.375 4.4375 C-1.11460937 3.61121094 -0.85421875 2.78492188 -0.5859375 1.93359375 C-0.39257812 1.29550781 -0.19921875 0.65742188 0 0 Z " fill="#75BCC1" transform="translate(341,201)"/>
<path d="M0 0 C0.33 0.66 0.66 1.32 1 2 C0.690625 2.86625 0.38125 3.7325 0.0625 4.625 C-1.2344644 8.74476926 -1.28697112 11.69543316 -1 16 C-0.34 16.66 0.32 17.32 1 18 C2.9931567 18.02375926 2.9931567 18.02375926 5.125 17.625 C6.40375 17.41875 7.6825 17.2125 9 17 C8 20 8 20 6 21 C2.28711536 21.41254274 0.45378496 21.26218686 -2.8125 19.375 C-5.58032513 16.36993271 -6.07721461 15.09237424 -6 11 C-4.61711546 6.85833063 -3.10915818 3.10915818 0 0 Z " fill="#6EB8BD" transform="translate(242,124)"/>
<path d="M0 0 C2.92776342 2.23648594 4.85262932 5.03290702 7 8 C8.27811913 9.4702212 9.56944279 10.92908877 10.875 12.375 C12.53877179 14.24767587 13.88020774 15.76041548 15 18 C11.55835531 16.47038014 8.90848242 14.37270934 6 12 C5.34 11.67 4.68 11.34 4 11 C3.375 8.4375 3.375 8.4375 3 6 C2.01 6 1.02 6 0 6 C0 4.68 0 3.36 0 2 C-1.958964 2.30852185 -3.91715713 2.6219418 -5.875 2.9375 C-7.51082031 3.19853516 -7.51082031 3.19853516 -9.1796875 3.46484375 C-11.93821546 3.85551159 -11.93821546 3.85551159 -14 5 C-11.24138909 -1.10835273 -6.2596595 -1.29152613 0 0 Z " fill="#84C2CE" transform="translate(177,172)"/>
<path d="M0 0 C2.76659292 4.99562586 3.54057099 10.45814357 4.6875 16 C4.92533203 17.093125 5.16316406 18.18625 5.40820312 19.3125 C5.62798828 20.364375 5.84777344 21.41625 6.07421875 22.5 C6.27619873 23.4590625 6.47817871 24.418125 6.6862793 25.40625 C6.99559357 27.96356897 6.81475406 29.58105403 6 32 C4.74335022 29.09399739 4 27.20395416 4 24 C3.34 24 2.68 24 2 24 C1.90912109 22.93458984 1.90912109 22.93458984 1.81640625 21.84765625 C1.73261719 20.92855469 1.64882812 20.00945312 1.5625 19.0625 C1.48128906 18.14597656 1.40007812 17.22945312 1.31640625 16.28515625 C1.23955024 14.03840268 1.23955024 14.03840268 0 13 C-0.07258946 10.81360547 -0.08373783 8.62499611 -0.0625 6.4375 C-0.05347656 5.23996094 -0.04445313 4.04242188 -0.03515625 2.80859375 C-0.02355469 1.88175781 -0.01195313 0.95492187 0 0 Z " fill="#8EC4D6" transform="translate(94,121)"/>
<path d="M0 0 C2.47070676 1.46850458 4.88604837 2.9861911 7.2734375 4.5859375 C4.47456423 5.98537413 3.15204922 5.13347326 0.2109375 4.2109375 C-0.68753906 3.93507813 -1.58601563 3.65921875 -2.51171875 3.375 C-4.7265625 2.5859375 -4.7265625 2.5859375 -5.7265625 1.5859375 C-11.13244445 1.36069242 -16.36704499 1.90536385 -21.7265625 2.5859375 C-14.64620604 -2.13430014 -7.89651519 -4.09532736 0 0 Z " fill="#90CAD1" transform="translate(259.7265625,284.4140625)"/>
<path d="M0 0 C1.22658596 3.65232624 0.87283529 6.71904947 0.44140625 10.515625 C0.23354492 12.39121094 0.23354492 12.39121094 0.02148438 14.3046875 C-0.12998047 15.60664063 -0.28144531 16.90859375 -0.4375 18.25 C-0.58723928 19.5806561 -0.73633497 20.91138479 -0.88476562 22.2421875 C-1.25017498 25.4955095 -1.62426258 28.74785464 -2 32 C4.27 32 10.54 32 17 32 C17 32.33 17 32.66 17 33 C10.4 33 3.8 33 -3 33 C-3.11400796 22.28325214 -2.67880588 11.69119255 -2 1 C-1.34 0.67 -0.68 0.34 0 0 Z " fill="#B4E1E8" transform="translate(39,137)"/>
<path d="M0 0 C1.16161779 2.86578759 0.9946154 4.01630163 0.00390625 7.015625 C-0.70958984 8.61664063 -0.70958984 8.61664063 -1.4375 10.25 C-2.14712891 11.86648437 -2.14712891 11.86648437 -2.87109375 13.515625 C-3.24363281 14.33546875 -3.61617187 15.1553125 -4 16 C-3.34 16.33 -2.68 16.66 -2 17 C-2.26554687 17.49628906 -2.53109375 17.99257812 -2.8046875 18.50390625 C-5.11620712 22.94978522 -6.78475081 27.13900324 -8 32 C-9.32 31.67 -10.64 31.34 -12 31 C-11.67386719 30.24976563 -11.34773438 29.49953125 -11.01171875 28.7265625 C-8.57114434 23.01029088 -6.44402884 17.38162814 -4.7578125 11.40234375 C-3.511983 7.45293579 -1.77712412 3.73466693 0 0 Z " fill="#94C7D9" transform="translate(67,136)"/>
<path d="M0 0 C1.37577361 0.11617644 2.75061045 0.24345777 4.125 0.375 C4.89070312 0.44460937 5.65640625 0.51421875 6.4453125 0.5859375 C9 1 9 1 11.5625 2 C16.62250032 3.47200009 21.6295724 3.46996273 26.875 3.625 C27.94492188 3.66367188 29.01484375 3.70234375 30.1171875 3.7421875 C32.74462408 3.83602452 35.37206171 3.92171557 38 4 C38 4.33 38 4.66 38 5 C28.48340805 6.5537293 18.48347277 6.83833472 9 5 C9 4.34 9 3.68 9 3 C6.03 2.67 3.06 2.34 0 2 C0 1.34 0 0.68 0 0 Z " fill="#8AC1CA" transform="translate(196,217)"/>
<path d="M0 0 C1.25361328 0.00322266 2.50722656 0.00644531 3.79882812 0.00976562 C5.76432617 0.02233398 5.76432617 0.02233398 7.76953125 0.03515625 C9.10481606 0.04017308 10.44010266 0.04473566 11.77539062 0.04882812 C15.04431598 0.0606293 18.31315116 0.07709328 21.58203125 0.09765625 C21.58203125 0.42765625 21.58203125 0.75765625 21.58203125 1.09765625 C20.80077881 1.09652832 20.01952637 1.09540039 19.21459961 1.09423828 C15.64871545 1.10640041 12.08494336 1.1641169 8.51953125 1.22265625 C6.67584961 1.21878906 6.67584961 1.21878906 4.79492188 1.21484375 C-3.07968407 1.29197744 -3.07968407 1.29197744 -9.6640625 5.15234375 C-10.41514282 5.97581299 -10.41514282 5.97581299 -11.18139648 6.81591797 C-11.79349976 7.45037842 -11.79349976 7.45037842 -12.41796875 8.09765625 C-13.07796875 8.09765625 -13.73796875 8.09765625 -14.41796875 8.09765625 C-14.74796875 10.40765625 -15.07796875 12.71765625 -15.41796875 15.09765625 C-16.07796875 14.76765625 -16.73796875 14.43765625 -17.41796875 14.09765625 C-15.61105594 8.48671648 -14.09136747 4.9532102 -9.41796875 1.09765625 C-6.06061738 -0.02146087 -3.53591489 -0.01599961 0 0 Z " fill="#9DD3D8" transform="translate(339.41796875,168.90234375)"/>
<path d="M0 0 C0.33 0 0.66 0 1 0 C2.68187307 6.30702403 3.17276191 12.69491625 0.1875 18.5625 C-2.22954477 21.25577846 -3.62650809 21.87268881 -7.19140625 22.203125 C-8.36509766 22.22632813 -8.36509766 22.22632813 -9.5625 22.25 C-10.34753906 22.27578125 -11.13257813 22.3015625 -11.94140625 22.328125 C-12.62074219 22.21984375 -13.30007813 22.1115625 -14 22 C-14.66 21.01 -15.32 20.02 -16 19 C-15.01 19.33 -14.02 19.66 -13 20 C-7.16645191 20.33019773 -7.16645191 20.33019773 -2 18 C-1.26905133 16.09328165 -1.26905133 16.09328165 -1.171875 13.8671875 C-1.09453125 13.06152344 -1.0171875 12.25585938 -0.9375 11.42578125 C-0.875625 10.58402344 -0.81375 9.74226562 -0.75 8.875 C-0.67265625 8.02550781 -0.5953125 7.17601562 -0.515625 6.30078125 C-0.32696707 4.20196182 -0.16129651 2.1010993 0 0 Z " fill="#8FCCD1" transform="translate(344,135)"/>
<path d="M0 0 C1.86019856 3.13908507 2.44395022 5.35960817 2 9 C1.54625 9.70125 1.0925 10.4025 0.625 11.125 C-1.82748316 15.46400867 -2.27251432 20.11300795 -3 25 C-4.32 24.01 -5.64 23.02 -7 22 C-6.54625 20.88625 -6.0925 19.7725 -5.625 18.625 C-4.08954687 14.57371051 -3.24055592 10.56256304 -2.52734375 6.296875 C-1.98828249 3.94896373 -1.1615332 2.10136297 0 0 Z " fill="#83BCD4" transform="translate(25,109)"/>
<path d="M0 0 C0.33 0.66 0.66 1.32 1 2 C0.22914063 1.96519531 -0.54171875 1.93039063 -1.3359375 1.89453125 C-2.84027344 1.85392578 -2.84027344 1.85392578 -4.375 1.8125 C-5.37273437 1.77769531 -6.37046875 1.74289063 -7.3984375 1.70703125 C-8.68621094 1.85205078 -8.68621094 1.85205078 -10 2 C-10.99 3.485 -10.99 3.485 -12 5 C-12.66 5 -13.32 5 -14 5 C-13.95875 6.2375 -13.9175 7.475 -13.875 8.75 C-13.86341709 12.01637962 -14.1431298 14.2146947 -16 17 C-16.66 17 -17.32 17 -18 17 C-18 14.36 -18 11.72 -18 9 C-17.34 9 -16.68 9 -16 9 C-15.95875 8.278125 -15.9175 7.55625 -15.875 6.8125 C-14.88919482 3.64384049 -13.5187443 1.91570422 -10.89453125 -0.12109375 C-7.37356727 -1.75453065 -3.62345512 -1.15187731 0 0 Z " fill="#91C7D5" transform="translate(138,150)"/>
<path d="M0 0 C0.33 0 0.66 0 1 0 C1.44693406 5.36320874 0.59163937 8.50960687 -2.02734375 13.203125 C-3.14320533 15.14043364 -3.14320533 15.14043364 -4 18 C-5.62332967 19.38576923 -7.28724465 20.72641268 -9 22 C-8.01 18.04 -7.02 14.08 -6 10 C-5.34 10 -4.68 10 -4 10 C-3.71125 9.0925 -3.4225 8.185 -3.125 7.25 C-2.23468224 4.67797092 -1.28505587 2.38653234 0 0 Z " fill="#5BA4C8" transform="translate(35,87)"/>
<path d="M0 0 C8.39933846 3.72646706 15.39118159 10.87528473 21 18 C20.40703125 17.69320312 19.8140625 17.38640625 19.203125 17.0703125 C16.54170348 15.7773524 13.81660808 14.89619348 11 14 C11 12.68 11 11.36 11 10 C10.0409375 9.8453125 10.0409375 9.8453125 9.0625 9.6875 C8.0415625 9.3471875 8.0415625 9.3471875 7 9 C6.67 8.01 6.34 7.02 6 6 C5.01 6 4.02 6 3 6 C0.8125 4 0.8125 4 -1 2 C-0.67 1.34 -0.34 0.68 0 0 Z " fill="#77C0C5" transform="translate(278,31)"/>
<path d="M0 0 C4.94779424 0.69347037 9.55232435 1.97889874 14.3125 3.4375 C20.17359811 5.20144629 25.99295604 6.79859121 32 8 C32 8.33 32 8.66 32 9 C25.32271667 8.41339754 18.65936905 7.76418989 12 7 C12 6.34 12 5.68 12 5 C10.72125 4.855625 9.4425 4.71125 8.125 4.5625 C5.74307106 4.29357254 4.15547309 4.07773654 2 3 C2 2.34 2 1.68 2 1 C1.34 0.67 0.68 0.34 0 0 Z " fill="#9ACDDA" transform="translate(139,325)"/>
<path d="M0 0 C1.68512411 0.38553597 3.37259741 0.7609801 5.0625 1.125 C6.375 1.41666667 7.6875 1.70833333 9 2 C9 2.33 9 2.66 9 3 C4.3432366 3.07391688 -0.07675277 3.04151958 -4.6875 2.375 C-9.40443843 1.7812595 -12.77630468 2.88815234 -17 5 C-15.98912198 2.06845375 -14.97304162 0.98027436 -12.4375 -0.875 C-7.71135717 -2.42173765 -4.66518971 -1.33400033 0 0 Z " fill="#84C0CE" transform="translate(165,289)"/>
<path d="M0 0 C0.66 0.33 1.32 0.66 2 1 C0.625 3.5 0.625 3.5 -1 6 C-1.66 6 -2.32 6 -3 6 C-2.71125 6.639375 -2.4225 7.27875 -2.125 7.9375 C0.19630455 14.25660684 1.28601618 20.27861977 1 27 C-3.51069896 20.23395156 -4.63531052 13.00491261 -4 5 C-2 2 -2 2 0 0 Z " fill="#82BCD2" transform="translate(24,206)"/>
<path d="M0 0 C0.33 0 0.66 0 1 0 C1.02696365 1.79158489 1.04637917 3.58328473 1.0625 5.375 C1.07410156 6.37273437 1.08570312 7.37046875 1.09765625 8.3984375 C1 11 1 11 0 13 C-0.22622081 14.70363822 -0.40888473 16.41328701 -0.5625 18.125 C-0.68818359 19.49011719 -0.68818359 19.49011719 -0.81640625 20.8828125 C-0.87699219 21.58148438 -0.93757813 22.28015625 -1 23 C-1.33 23 -1.66 23 -2 23 C-3.485 28.445 -3.485 28.445 -5 34 C-6.0162141 29.93514359 -5.87382202 28.30136612 -5.0390625 24.31640625 C-4.81476563 23.22392578 -4.59046875 22.13144531 -4.359375 21.00585938 C-4.11703125 19.86955078 -3.8746875 18.73324219 -3.625 17.5625 C-3.39039062 16.43005859 -3.15578125 15.29761719 -2.9140625 14.13085938 C-2.47610239 12.01944375 -2.03458998 9.90875961 -1.58837891 7.79907227 C-1.04254837 5.20241373 -0.51573811 2.60278214 0 0 Z " fill="#A1D0DB" transform="translate(119,168)"/>
<path d="M0 0 C0.33 0 0.66 0 1 0 C1.33 4.62 1.66 9.24 2 14 C2.33 14 2.66 14 3 14 C3.33 19.28 3.66 24.56 4 30 C-2.4487743 21.40163427 -1.23842342 10.2253609 0 0 Z " fill="#92C7CE" transform="translate(287,264)"/>
<path d="M0 0 C-0.98316886 2.51021837 -1.5806367 3.75844674 -3.953125 5.125 C-4.71109375 5.41375 -5.4690625 5.7025 -6.25 6 C-9.2235109 7.19799556 -11.74079088 8.398517 -14.3125 10.3125 C-17 12 -17 12 -19.16796875 11.60546875 C-19.77253906 11.40566406 -20.37710938 11.20585937 -21 11 C-4.19101124 -0 -4.19101124 -0 0 0 Z " fill="#9CCBDB" transform="translate(111,15)"/>
<path d="M0 0 C0.94137255 2.82411765 1.11725382 4.52918032 1.09765625 7.44921875 C1.09282227 8.72055664 1.09282227 8.72055664 1.08789062 10.01757812 C1.07951172 10.89865234 1.07113281 11.77972656 1.0625 12.6875 C1.05798828 13.58017578 1.05347656 14.47285156 1.04882812 15.39257812 C1.03704983 17.59511987 1.02060164 19.79752599 1 22 C-2.65562339 18.12721087 -3.52972221 15.74335143 -3.4375 10.4375 C-3.43621094 9.32246094 -3.43492187 8.20742188 -3.43359375 7.05859375 C-2.97029195 3.79043778 -2.2077373 2.39513144 0 0 Z " fill="#77BEC3" transform="translate(309,263)"/>
<path d="M0 0 C0.99966797 0.2165625 0.99966797 0.2165625 2.01953125 0.4375 C11.89563969 2.42653443 21.04640455 2.30538957 31 1 C31 1.66 31 2.32 31 3 C26.13725189 4.62091604 21.15510494 4.26780189 16.0625 4.3125 C14.96486328 4.34150391 13.86722656 4.37050781 12.73632812 4.40039062 C11.67994141 4.40876953 10.62355469 4.41714844 9.53515625 4.42578125 C8.569729 4.44036377 7.60430176 4.45494629 6.60961914 4.4699707 C3.30035675 3.87400007 2.1225554 2.53234174 0 0 Z " fill="#3D9EAA" transform="translate(204,199)"/>
<path d="M0 0 C6.22895086 1.27773351 10.93787086 5.25372279 15 10 C15.76171875 12.76171875 15.76171875 12.76171875 16 15 C12.27929177 13.75976392 11.37478909 12.04269852 9 9 C8.01 8.34 7.02 7.68 6 7 C6 6.34 6 5.68 6 5 C5.195625 4.731875 4.39125 4.46375 3.5625 4.1875 C2.716875 3.795625 1.87125 3.40375 1 3 C0.67 2.01 0.34 1.02 0 0 Z " fill="#98CCD1" transform="translate(271,53)"/>
<path d="M0 0 C2.31 0.66 4.62 1.32 7 2 C7 2.66 7 3.32 7 4 C8.0828125 3.8453125 8.0828125 3.8453125 9.1875 3.6875 C13.1969685 4.1329965 14.49827905 5.94234106 17 9 C17.8125 11.3125 17.8125 11.3125 18 13 C13.70128024 12.52236447 11.96284998 9.96284998 9 7 C6.63730479 5.34134023 4.2320113 3.77817354 1.79296875 2.234375 C1.20128906 1.82703125 0.60960937 1.4196875 0 1 C0 0.67 0 0.34 0 0 Z " fill="#7ABEC6" transform="translate(253,40)"/>
<path d="M0 0 C0.99 0 1.98 0 3 0 C1.18633597 4.12764916 -1.49146618 7.62059205 -4.125 11.25 C-4.59292969 11.8996875 -5.06085938 12.549375 -5.54296875 13.21875 C-6.69274282 14.81435483 -7.84602566 16.40743025 -9 18 C-9.33 16.68 -9.66 15.36 -10 14 C-9.34 14 -8.68 14 -8 14 C-7.67 12.35 -7.34 10.7 -7 9 C-6.01 8.67 -5.02 8.34 -4 8 C-3.63451555 6.67511887 -3.3062434 5.33981486 -3 4 C-1.625 1.75 -1.625 1.75 0 0 Z " fill="#5FB0B5" transform="translate(320,245)"/>
<path d="M0 0 C1.54462343 5.2754831 1.29838237 10.40752036 -1.18359375 15.36328125 C-2.39535019 17.29591263 -3.64525277 19.16534231 -5 21 C-5.66 20.67 -6.32 20.34 -7 20 C-6.29937517 15.43263559 -4.68729793 11.4300495 -2.9375 7.1875 C-2.51500977 6.14819336 -2.51500977 6.14819336 -2.08398438 5.08789062 C-1.39325027 3.39032376 -0.69716272 1.69493688 0 0 Z " fill="#7FC3C8" transform="translate(318,203)"/>
<path d="M0 0 C0.99 0.33 1.98 0.66 3 1 C1.37003104 5.13822218 -0.36655355 9.22768778 -2.125 13.3125 C-2.54072266 14.28026367 -2.54072266 14.28026367 -2.96484375 15.26757812 C-3.64267554 16.84529005 -4.32126074 18.42267826 -5 20 C-5.33 20 -5.66 20 -6 20 C-6.28571429 11.42857143 -6.28571429 11.42857143 -4 8 C-3.34 8 -2.68 8 -2 8 C-2 6.68 -2 5.36 -2 4 C-1.34 4 -0.68 4 0 4 C0 2.68 0 1.36 0 0 Z " fill="#88BFD4" transform="translate(52,96)"/>
<path d="M0 0 C0.33 0 0.66 0 1 0 C1.33 3.3 1.66 6.6 2 10 C2.66 10 3.32 10 4 10 C4 12.31 4 14.62 4 17 C3.01 16.67 2.02 16.34 1 16 C-0.125 13.1875 -0.125 13.1875 -1 10 C-1.2475 9.34 -1.495 8.68 -1.75 8 C-2.12188409 5.0249273 -1.06344247 2.75243934 0 0 Z " fill="#84C0D4" transform="translate(109,193)"/>
<path d="M0 0 C5.61 0 11.22 0 17 0 C16.67 0.99 16.34 1.98 16 3 C10.72 2.67 5.44 2.34 0 2 C-0.33 4.97 -0.66 7.94 -1 11 C-1.33 11 -1.66 11 -2 11 C-2.17700355 6.39790775 -2.10814567 4.21629134 0 0 Z " fill="#AAD4D9" transform="translate(344,190)"/>
<path d="M0 0 C8.73139464 -0.11624638 17.31126982 0.10884819 26 1 C26 1.66 26 2.32 26 3 C19.72442649 3.12251662 13.59185692 2.86563122 7.34765625 2.21875 C4.89512743 1.95361192 4.89512743 1.95361192 2 2 C1.34 1.34 0.68 0.68 0 0 Z " fill="#97C8D0" transform="translate(172,355)"/>
<path d="M0 0 C2.9375 2.5625 2.9375 2.5625 5 5 C4.67 5.66 4.34 6.32 4 7 C3.505 6.360625 3.01 5.72125 2.5 5.0625 C-1.08067472 2.10844335 -3.37303319 2.07344392 -8 2 C-9.79252059 3.29209912 -9.79252059 3.29209912 -11 5 C-13.1875 5.6875 -13.1875 5.6875 -15 6 C-13.96096588 2.98680106 -12.99930443 1.99953089 -10.3125 0.1875 C-6.25633825 -1.26659572 -4.1291489 -1.20120695 0 0 Z " fill="#9FCEDD" transform="translate(89,113)"/>
<path d="M0 0 C0.33 0 0.66 0 1 0 C0.59060025 6.76215448 -0.56953809 12.67162748 -3 19 C-3.66 19 -4.32 19 -5 19 C-6.16585932 15.50242203 -5.75860292 14.38431934 -4.6875 10.9375 C-4.42324219 10.05964844 -4.15898438 9.18179688 -3.88671875 8.27734375 C-3 6 -3 6 -1 4 C-0.3574765 1.93125966 -0.3574765 1.93125966 0 0 Z " fill="#72B7CC" transform="translate(132,210)"/>
<path d="M0 0 C0.66 0.33 1.32 0.66 2 1 C1.34 1.66 0.68 2.32 0 3 C-0.47366503 8.6839803 -0.00135068 11.99774887 3 17 C2.34 17 1.68 17 1 17 C1 16.34 1 15.68 1 15 C0.34 15 -0.32 15 -1 15 C-1 14.34 -1 13.68 -1 13 C-1.66 13 -2.32 13 -3 13 C-4.54586876 9.90826248 -4.29359521 7.40570448 -4 4 C-2 1.5625 -2 1.5625 0 0 Z " fill="#5EABBE" transform="translate(165,175)"/>
<path d="M0 0 C1.96613833 3.69956456 2.84147748 7.34799214 3.625 11.4375 C3.7590625 12.09298828 3.893125 12.74847656 4.03125 13.42382812 C4.73384619 16.99774854 5.15437132 20.35824021 5 24 C1.78191533 20.92183205 0.89081667 19.08892872 0.68359375 14.6484375 C0.62075195 13.37226563 0.62075195 13.37226563 0.55664062 12.0703125 C0.51732422 11.18085938 0.47800781 10.29140625 0.4375 9.375 C0.39431641 8.4778125 0.35113281 7.580625 0.30664062 6.65625 C0.20043139 4.43765717 0.09838806 2.2189512 0 0 Z " fill="#95C9D8" transform="translate(101,154)"/>
<path d="M0 0 C1.32 0 2.64 0 4 0 C4 0.99 4 1.98 4 3 C4.66 3 5.32 3 6 3 C6 3.99 6 4.98 6 6 C8.31 6.33 10.62 6.66 13 7 C13.33 6.01 13.66 5.02 14 4 C14 4.66 14 5.32 14 6 C14.66 6.33 15.32 6.66 16 7 C13.47454967 8.73173737 11.45950406 9.91034067 8.4375 10.5 C6 10 6 10 3.8125 7.8125 C2.15554182 5.241358 0.98912733 2.88495472 0 0 Z " fill="#79BDC2" transform="translate(264,136)"/>
<path d="M0 0 C3.98712321 1.83246572 7.58084504 4.23855775 11.25 6.625 C11.8996875 7.04523438 12.549375 7.46546875 13.21875 7.8984375 C14.81368881 8.93045673 16.40700669 9.96498028 18 11 C14.86650268 12.04449911 14.01031744 11.93423645 11 11 C11 10.34 11 9.68 11 9 C10.071875 8.7834375 10.071875 8.7834375 9.125 8.5625 C7 8 7 8 5 7 C5 6.01 5 5.02 5 4 C2.03 3.505 2.03 3.505 -1 3 C-0.67 2.01 -0.34 1.02 0 0 Z " fill="#86C0D2" transform="translate(100,302)"/>
<path d="M0 0 C0.33 0 0.66 0 1 0 C1.65633329 10.00908272 -0.77154068 19.31018135 -3 29 C-3.33 29 -3.66 29 -4 29 C-4.24692314 22.42910088 -3.97136251 16.31699374 -2 10 C-1.67 9.67 -1.34 9.34 -1 9 C-0.76807135 7.48530552 -0.58784762 5.96245438 -0.4375 4.4375 C-0.35371094 3.61121094 -0.26992187 2.78492188 -0.18359375 1.93359375 C-0.12300781 1.29550781 -0.06242188 0.65742188 0 0 Z " fill="#9ACCD8" transform="translate(142,156)"/>
<path d="M0 0 C6.14154225 0.58490879 12.00679849 1.54066252 18 3 C18 3.66 18 4.32 18 5 C18.66 5.33 19.32 5.66 20 6 C13.41727705 5.60146354 7.02334972 4.86760841 1 2 C0.67 1.34 0.34 0.68 0 0 Z " fill="#6CB2C2" transform="translate(156,308)"/>
<path d="M0 0 C5.00966838 0.90236263 9.89748931 2.25402959 14.8125 3.5625 C15.69615234 3.79646484 16.57980469 4.03042969 17.49023438 4.27148438 C19.66051561 4.84631562 21.83042042 5.42252721 24 6 C24.33 5.34 24.66 4.68 25 4 C25 4.99 25 5.98 25 7 C7.25885827 6.06496063 7.25885827 6.06496063 0 2 C0 1.34 0 0.68 0 0 Z " fill="#A1D4DC" transform="translate(267,290)"/>
<path d="M0 0 C3.36487781 1.40872325 5.05709457 2.99655472 7.1875 5.9375 C7.95126953 6.97197266 7.95126953 6.97197266 8.73046875 8.02734375 C11.25905556 11.95637864 11.24912921 15.43263112 11 20 C10.34 20.66 9.68 21.32 9 22 C9.33 19.36 9.66 16.72 10 14 C9.34 14 8.68 14 8 14 C8 12.35 8 10.7 8 9 C7.4225 8.814375 6.845 8.62875 6.25 8.4375 C2.89572157 6.29448878 1.82092004 3.51177437 0 0 Z " fill="#98CFD4" transform="translate(271,120)"/>
<path d="M0 0 C1.04318738 3.23680571 0.92287835 5.45548417 0.22265625 8.765625 C0.03896484 9.65507812 -0.14472656 10.54453125 -0.33398438 11.4609375 C-0.53314453 12.38132813 -0.73230469 13.30171875 -0.9375 14.25 C-1.13279297 15.18585938 -1.32808594 16.12171875 -1.52929688 17.0859375 C-2.01176705 19.39238027 -2.50224577 21.696816 -3 24 C-3.33 24 -3.66 24 -4 24 C-3.91280537 20.93616098 -3.80589603 17.87515949 -3.6875 14.8125 C-3.66494141 13.94818359 -3.64238281 13.08386719 -3.61914062 12.19335938 C-3.41437857 7.33491431 -3.08068585 3.98919911 0 0 Z " fill="#8BC4D2" transform="translate(137,186)"/>
<path d="M0 0 C0.99 0 1.98 0 3 0 C3.35048466 4.20581591 2.61867025 5.77702123 0 9 C-0.71162443 10.64797236 -1.39031953 12.31165408 -2 14 C-2.33 14 -2.66 14 -3 14 C-3.58163265 4.1122449 -3.58163265 4.1122449 0 0 Z " fill="#6CAECC" transform="translate(79,160)"/>
<path d="M0 0 C1.56073255 2.34109882 2.86373867 4.56333403 4.125 7.0625 C4.47820313 7.75472656 4.83140625 8.44695312 5.1953125 9.16015625 C6 11 6 11 6 13 C5.01 13 4.02 13 3 13 C3 12.34 3 11.68 3 11 C2.34 11 1.68 11 1 11 C0.01 7.7 -0.98 4.4 -2 1 C-1.34 0.67 -0.68 0.34 0 0 Z " fill="#8FC3D8" transform="translate(48,233)"/>
<path d="M0 0 C1.13805733 3.414172 0.86529183 3.97298219 -0.375 7.1875 C-1.50349546 10.30357079 -2.21928103 13.07350087 -2.5 16.375 C-3.02240139 20.1624101 -3.29920799 20.65835586 -6 23 C-5.71954112 20.01937854 -5.42622495 17.04103028 -5.125 14.0625 C-5.04636719 13.21236328 -4.96773438 12.36222656 -4.88671875 11.48632812 C-4.80292969 10.67744141 -4.71914062 9.86855469 -4.6328125 9.03515625 C-4.55949707 8.2862915 -4.48618164 7.53742676 -4.41064453 6.76586914 C-4.27513184 6.18313232 -4.13961914 5.60039551 -4 5 C-3.34 4.67 -2.68 4.34 -2 4 C-0.86649466 1.98330173 -0.86649466 1.98330173 0 0 Z " fill="#4AA2BF" transform="translate(124,162)"/>
<path d="M0 0 C2 2 2 2 2.1875 4.5625 C2 7 2 7 1 8 C0.76807135 9.51469448 0.58784762 11.03754562 0.4375 12.5625 C0.35371094 13.38878906 0.26992188 14.21507812 0.18359375 15.06640625 C0.12300781 15.70449219 0.06242187 16.34257812 0 17 C-0.99 17 -1.98 17 -3 17 C-3.33 15.68 -3.66 14.36 -4 13 C-3.34 13 -2.68 13 -2 13 C-1.93941406 12.31292969 -1.87882812 11.62585938 -1.81640625 10.91796875 C-1.73261719 10.01691406 -1.64882813 9.11585938 -1.5625 8.1875 C-1.48128906 7.29417969 -1.40007812 6.40085938 -1.31640625 5.48046875 C-1 3 -1 3 0 0 Z " fill="#80C2C6" transform="translate(322,186)"/>
<path d="M0 0 C0.33 0 0.66 0 1 0 C0.98839844 0.61488281 0.97679687 1.22976562 0.96484375 1.86328125 C0.95582031 2.67152344 0.94679688 3.47976562 0.9375 4.3125 C0.92589844 5.11300781 0.91429687 5.91351563 0.90234375 6.73828125 C0.90342145 9.16861334 0.90342145 9.16861334 2 12 C1.67 12.33 1.34 12.66 1 13 C0.76924918 14.34747084 0.58846937 15.70377565 0.4375 17.0625 C0.293125 18.361875 0.14875 19.66125 0 21 C-0.66 21 -1.32 21 -2 21 C-2.70266527 16.94015623 -3.11859061 13.94450372 -2 10 C-1.63711344 8.25178738 -1.28322765 6.50168674 -0.9375 4.75 C-0.67259766 3.41195312 -0.67259766 3.41195312 -0.40234375 2.046875 C-0.26957031 1.37140625 -0.13679688 0.6959375 0 0 Z " fill="#8BC1D5" transform="translate(18,135)"/>
<path d="M0 0 C4.3741638 -0.16823707 7.18059182 -0.09451417 11 2 C12.03125 2.12375 13.0625 2.2475 14.125 2.375 C17 3 17 3 18.375 5.0625 C18.58125 5.701875 18.7875 6.34125 19 7 C16.03 6.505 16.03 6.505 13 6 C13 5.34 13 4.68 13 4 C10.69 4 8.38 4 6 4 C6 3.67 6 3.34 6 3 C4.02 2.34 2.04 1.68 0 1 C0 0.67 0 0.34 0 0 Z " fill="#99C9D3" transform="translate(135,346)"/>
<path d="M0 0 C1.98 0 3.96 0 6 0 C6.66 1.32 7.32 2.64 8 4 C9.32 4 10.64 4 12 4 C12 4.99 12 5.98 12 7 C11.01 7 10.02 7 9 7 C9 6.34 9 5.68 9 5 C5.37 4.34 1.74 3.68 -2 3 C-1.34 2.67 -0.68 2.34 0 2 C0 1.34 0 0.68 0 0 Z " fill="#3B9FAA" transform="translate(247,303)"/>
<path d="M0 0 C0.99 0 1.98 0 3 0 C4.90120099 7.12950371 5.22424141 13.63740707 5 21 C4.67 21 4.34 21 4 21 C3.66104344 19.27192682 3.32908475 17.54248026 3 15.8125 C2.814375 14.84957031 2.62875 13.88664063 2.4375 12.89453125 C2.03122388 10.2065794 1.92066428 7.71228981 2 5 C1.34 4.67 0.68 4.34 0 4 C0 2.68 0 1.36 0 0 Z " fill="#93C5D5" transform="translate(83,175)"/>
<path d="M0 0 C0.99 0 1.98 0 3 0 C3.50806447 1.72681437 4.00610467 3.45657979 4.5 5.1875 C4.7784375 6.15042969 5.056875 7.11335937 5.34375 8.10546875 C5.96677608 10.85345876 6.12302812 13.19598416 6 16 C5.01 15.67 4.02 15.34 3 15 C1.80506026 11.96826719 1.89506045 8.97540573 1.9375 5.75 C1.94652344 4.85796875 1.95554687 3.9659375 1.96484375 3.046875 C1.97644531 2.37140625 1.98804687 1.6959375 2 1 C1.34 0.67 0.68 0.34 0 0 Z " fill="#69ADC8" transform="translate(80,159)"/>
<path d="M0 0 C3.80167749 5.70251624 4.28602017 12.27852593 4 19 C3.34 18.67 2.68 18.34 2 18 C0.13639409 12.09858129 -0.22742222 6.14040005 0 0 Z " fill="#349FA1" transform="translate(340,123)"/>
<path d="M0 0 C3.9252025 3.70090521 6.94580156 7.54959656 10 12 C9.67 12.66 9.34 13.32 9 14 C2.49260042 10.26427061 2.49260042 10.26427061 1.08984375 6.6640625 C0.61665014 4.44180509 0.2411155 2.25861258 0 0 Z " fill="#79C0C5" transform="translate(309,60)"/>
<path d="M0 0 C1.31931404 3.95794211 0.36728696 5.96457784 -0.8125 9.9375 C-1.16957031 11.16339844 -1.52664062 12.38929688 -1.89453125 13.65234375 C-2.76276816 16.28159827 -3.66441085 18.58868745 -5 21 C-5.23268915 14.71739294 -4.40454548 9.11980533 -3 3 C-2.34 3 -1.68 3 -1 3 C-0.67 2.01 -0.34 1.02 0 0 Z " fill="#94C7D7" transform="translate(45,116)"/>
<path d="M0 0 C0.66 0 1.32 0 2 0 C1.67 0.99 1.34 1.98 1 3 C0.34 3 -0.32 3 -1 3 C-1.04125 3.5775 -1.0825 4.155 -1.125 4.75 C-2.44641709 8.14792966 -4.94897555 9.10030553 -8 11 C-10.04961576 12.61470858 -12.01822265 14.3013337 -14 16 C-12.61867539 12.8731209 -11.02096237 10.80079608 -8.5625 8.4375 C-7.96566406 7.85871094 -7.36882812 7.27992187 -6.75390625 6.68359375 C-5.88572266 5.85021484 -5.88572266 5.85021484 -5 5 C-4.47277344 4.43410156 -3.94554688 3.86820313 -3.40234375 3.28515625 C-2 2 -2 2 0 2 C0 1.34 0 0.68 0 0 Z " fill="#AAD5E2" transform="translate(74,37)"/>
<path d="M0 0 C5.78591511 -0.10477512 11.29309366 0.00749455 17 1 C17 1.66 17 2.32 17 3 C18.32 3.33 19.64 3.66 21 4 C18.55025696 5.22487152 17.3246727 4.98796191 14.625 4.6875 C13.85414063 4.60886719 13.08328125 4.53023437 12.2890625 4.44921875 C9.88957927 3.9783304 8.15776486 3.12291845 6 2 C4.00889599 1.61709538 2.00899487 1.27395385 0 1 C0 0.67 0 0.34 0 0 Z " fill="#88C0CE" transform="translate(191,20)"/>
<path d="M0 0 C2 1.375 2 1.375 4 3 C4 3.66 4 4.32 4 5 C8.455 4.505 8.455 4.505 13 4 C13 3.34 13 2.68 13 2 C13.99 2 14.98 2 16 2 C15 5 15 5 13.375 6.1875 C10.0913884 7.31084081 7.44746654 7.30780951 4 7 C1.5625 5.75 1.5625 5.75 0 4 C0 2.68 0 1.36 0 0 Z " fill="#37A0A2" transform="translate(327,149)"/>
<path d="M0 0 C6.77842566 0 6.77842566 0 9.63671875 2.33984375 C13 6.28133954 13 6.28133954 13 9 C10.5625 8.25 10.5625 8.25 8 7 C7.67 5.68 7.34 4.36 7 3 C4.03 2.67 1.06 2.34 -2 2 C-1.34 1.34 -0.68 0.68 0 0 Z " fill="#93C8DA" transform="translate(28,204)"/>
<path d="M0 0 C0 0.33 0 0.66 0 1 C-5.75 1.125 -5.75 1.125 -8 0 C-10.37402501 -0.07116382 -12.75000677 -0.08409085 -15.125 -0.0625 C-16.40632812 -0.05347656 -17.68765625 -0.04445313 -19.0078125 -0.03515625 C-19.99523437 -0.02355469 -20.98265625 -0.01195313 -22 0 C-15.33466398 -4.44355734 -7.03118351 -3.40218557 0 0 Z " fill="#97CDD4" transform="translate(271,119)"/>
<path d="M0 0 C0.33 0.66 0.66 1.32 1 2 C-3.64849515 4.3992233 -7.91086074 4.19957409 -13 4 C-13.33 4.99 -13.66 5.98 -14 7 C-15.65 7 -17.3 7 -19 7 C-19 6.34 -19 5.68 -19 5 C-15.94897893 3.25253297 -13.55732044 2.71539725 -10.0625 2.5 C-6.35857029 2.19908991 -3.36737018 1.68368509 0 0 Z " fill="#56A6C1" transform="translate(164,18)"/>
<path d="M0 0 C1.22611152 2.89808178 0.9905595 4.02721086 -0.0625 7.0625 C-2.32240904 10.4888137 -4.2380934 11.49523736 -8 13 C-6.33333333 9.66666667 -4.66666667 6.33333333 -3 3 C-2.34 3 -1.68 3 -1 3 C-0.67 2.01 -0.34 1.02 0 0 Z " fill="#8DC9CE" transform="translate(306,230)"/>
<path d="M0 0 C1.4800841 0.11362262 2.95910074 0.24122908 4.4375 0.375 C5.26121094 0.44460937 6.08492187 0.51421875 6.93359375 0.5859375 C7.95646484 0.79089844 7.95646484 0.79089844 9 1 C9.33 1.66 9.66 2.32 10 3 C6.54754176 5.30163882 5.05261287 5.34490322 1 5 C0.34 4.34 -0.32 3.68 -1 3 C-0.67 2.01 -0.34 1.02 0 0 Z " fill="#78BACD" transform="translate(165,140)"/>
<path d="M0 0 C3.17175425 3.43535849 3.45766505 6.15330091 3.6875 10.75 C3.75324219 11.92046875 3.81898438 13.0909375 3.88671875 14.296875 C3.92410156 15.18890625 3.96148437 16.0809375 4 17 C2 16 2 16 0.9375 12.875 C-1.4673913 2.93478261 -1.4673913 2.93478261 0 0 Z " fill="#A5D5DA" transform="translate(322,135)"/>
<path d="M0 0 C0.66 0.33 1.32 0.66 2 1 C1.375 2.875 1.375 2.875 0 5 C-1.98723268 5.70381157 -3.98777953 6.3711811 -6 7 C-6.99 8.485 -6.99 8.485 -8 10 C-9.32 9.67 -10.64 9.34 -12 9 C-8 6 -4 3 0 0 Z " fill="#99CADB" transform="translate(88,27)"/>
<path d="M0 0 C4.4571874 0.26218749 6.51522698 0.57711289 9.9375 3.5625 C10.618125 4.366875 11.29875 5.17125 12 6 C11.22914063 5.7834375 10.45828125 5.566875 9.6640625 5.34375 C8.66117187 5.0653125 7.65828125 4.786875 6.625 4.5 C5.62726563 4.2215625 4.62953125 3.943125 3.6015625 3.65625 C1.12396724 2.91846985 1.12396724 2.91846985 -1 3 C-0.67 2.01 -0.34 1.02 0 0 Z " fill="#65B2B8" transform="translate(261,309)"/>
<path d="M0 0 C3.78611227 0.54087318 5.55400767 2.11722332 8 5 C8 5.66 8 6.32 8 7 C8.66 7 9.32 7 10 7 C10.33 8.65 10.66 10.3 11 12 C9.7010161 11.09373216 8.41106833 10.17450463 7.125 9.25 C6.40570313 8.73953125 5.68640625 8.2290625 4.9453125 7.703125 C2.89107126 5.90463267 2.04418802 4.49388595 1 2 C0.67 1.34 0.34 0.68 0 0 Z " fill="#89BED0" transform="translate(63,296)"/>
<path d="M0 0 C0.66 0 1.32 0 2 0 C1.51358785 6.84817102 0.64006048 13.33042073 -1 20 C-1.33 20 -1.66 20 -2 20 C-2.02688151 18.35425434 -2.04634123 16.70838587 -2.0625 15.0625 C-2.07410156 14.14597656 -2.08570313 13.22945312 -2.09765625 12.28515625 C-2 10 -2 10 -1 9 C-0.76807135 7.48530552 -0.58784762 5.96245438 -0.4375 4.4375 C-0.35371094 3.61121094 -0.26992187 2.78492188 -0.18359375 1.93359375 C-0.12300781 1.29550781 -0.06242188 0.65742188 0 0 Z " fill="#4E9EBA" transform="translate(132,199)"/>
<path d="M0 0 C2.97 0 5.94 0 9 0 C9 0.99 9 1.98 9 3 C8.67 2.67 8.34 2.34 8 2 C5.61900779 1.58233016 5.61900779 1.58233016 3 2 C0.89565138 3.71570267 0.89565138 3.71570267 -0.8125 6 C-1.41707031 6.7425 -2.02164062 7.485 -2.64453125 8.25 C-3.09183594 8.8275 -3.53914063 9.405 -4 10 C-4.33 8.68 -4.66 7.36 -5 6 C-4.01 5.34 -3.02 4.68 -2 4 C-1.34 2.68 -0.68 1.36 0 0 Z " fill="#529FC8" transform="translate(26,206)"/>
<path d="M0 0 C2.35302007 2.35302007 2.39392208 3.27435295 2.75 6.5 C2.84796875 7.2940625 2.9459375 8.088125 3.046875 8.90625 C3 11 3 11 1 13 C-0.6290678 8.20862412 -1.20577428 4.94367454 0 0 Z " fill="#81BFCC" transform="translate(203,129)"/>
<path d="M0 0 C0.66 0 1.32 0 2 0 C3.5078125 1.75 3.5078125 1.75 5.125 4 C5.66382813 4.7425 6.20265625 5.485 6.7578125 6.25 C7.16773438 6.8275 7.57765625 7.405 8 8 C6 9 6 9 4 8.8125 C2 8 2 8 0.75 6.1875 C0 4 0 4 0 0 Z " fill="#43A8AD" transform="translate(286,63)"/>
<path d="M0 0 C1.66611905 -0.042721 3.33382885 -0.04063832 5 0 C5.33 0.33 5.66 0.66 6 1 C8.52596259 1.23653523 11.03107207 1.42173692 13.5625 1.5625 C14.27341797 1.60568359 14.98433594 1.64886719 15.71679688 1.69335938 C17.47761912 1.79971777 19.2387832 1.90038846 21 2 C21 2.66 21 3.32 21 4 C13.28063101 5.81632211 7.34229426 3.60785756 0 1 C0 0.67 0 0.34 0 0 Z " fill="#3DA2A6" transform="translate(272,294)"/>
<path d="M0 0 C0.89332031 0.12761719 1.78664063 0.25523437 2.70703125 0.38671875 C3.60808594 0.50660156 4.50914062 0.62648437 5.4375 0.75 C6.12457031 0.85699219 6.81164062 0.96398437 7.51953125 1.07421875 C7.18953125 1.73421875 6.85953125 2.39421875 6.51953125 3.07421875 C5.28203125 3.01234375 4.04453125 2.95046875 2.76953125 2.88671875 C-0.11225523 2.88671875 -1.32491023 2.99045647 -3.91796875 4.38671875 C-5.71733832 6.09731488 -5.71733832 6.09731488 -6.48046875 9.07421875 C-7.14046875 8.74421875 -7.80046875 8.41421875 -8.48046875 8.07421875 C-3.96514142 0.11864203 -3.96514142 0.11864203 0 0 Z " fill="#2F9C9E" transform="translate(268.48046875,172.92578125)"/>
<path d="M0 0 C0.33 0.66 0.66 1.32 1 2 C0.67 2.66 0.34 3.32 0 4 C-7.59 4 -15.18 4 -23 4 C-23 3.67 -23 3.34 -23 3 C-16.4 3 -9.8 3 -3 3 C-3 2.34 -3 1.68 -3 1 C-2.01 0.67 -1.02 0.34 0 0 Z " fill="#67A9CA" transform="translate(59,167)"/>
<path d="M0 0 C0.33 0 0.66 0 1 0 C1 4.95 1 9.9 1 15 C-2.5595477 11.4404523 -2.82969967 9.93870955 -3 5 C-1.625 2.0625 -1.625 2.0625 0 0 Z " fill="#98CBD6" transform="translate(163,128)"/>
<path d="M0 0 C1.2380014 3.57644848 0.74926071 6.33694766 0 10 C-0.66 10 -1.32 10 -2 10 C-2.66 11.65 -3.32 13.3 -4 15 C-5 13 -5 13 -4.25 9.75 C-3.09612878 6.28838634 -1.72228672 3.20971615 0 0 Z " fill="#92C7D8" transform="translate(73,120)"/>
<path d="M0 0 C6.55693043 -0.36959733 13.15241134 -0.37748655 19 3 C20.25 5.109375 20.25 5.109375 21 7 C19.35 6.34 17.7 5.68 16 5 C16 4.34 16 3.68 16 3 C14.5459375 3.0309375 14.5459375 3.0309375 13.0625 3.0625 C10 3 10 3 9 2 C7.48530552 1.76807135 5.96245438 1.58784762 4.4375 1.4375 C3.61121094 1.35371094 2.78492188 1.26992187 1.93359375 1.18359375 C1.29550781 1.12300781 0.65742188 1.06242187 0 1 C0 0.67 0 0.34 0 0 Z " fill="#339EA2" transform="translate(253,118)"/>
<path d="M0 0 C2.96065032 0.3200703 4.55406123 0.53723336 6.65625 2.71875 C8.27419551 5.4654947 8.31220835 7.09072186 8.1875 10.25 C8.16042969 11.14203125 8.13335937 12.0340625 8.10546875 12.953125 C8.07066406 13.62859375 8.03585938 14.3040625 8 15 C6.28738856 11.71443213 5.05632445 8.40768595 3.87890625 4.90234375 C2.89967127 2.78284405 1.7294568 1.54639452 0 0 Z " fill="#55A0C4" transform="translate(86,115)"/>
<path d="M0 0 C-1.3094668 1.33631236 -2.62265485 2.66897925 -3.9375 4 C-4.66839844 4.7425 -5.39929688 5.485 -6.15234375 6.25 C-8 8 -8 8 -9 8 C-9 6.35 -9 4.7 -9 3 C-8.01 3 -7.02 3 -6 3 C-6 2.01 -6 1.02 -6 0 C-3 -1 -3 -1 0 0 Z " fill="#5AB1B6" transform="translate(272,200)"/>
<path d="M0 0 C3.08454501 1.75068771 5.55346007 3.44708876 8 6 C9.31963709 7.01800576 10.65009646 8.02248365 12 9 C8.44219804 8.39009109 5.3171411 7.4216319 2 6 C2 5.34 2 4.68 2 4 C0.68 3.34 -0.64 2.68 -2 2 C-1.34 2 -0.68 2 0 2 C0 1.34 0 0.68 0 0 Z " fill="#62AFBD" transform="translate(192,190)"/>
<path d="M0 0 C0.91007813 0.00902344 1.82015625 0.01804688 2.7578125 0.02734375 C3.45648438 0.03894531 4.15515625 0.05054688 4.875 0.0625 C5.205 0.7225 5.535 1.3825 5.875 2.0625 C4.95976562 2.19527344 4.04453125 2.32804688 3.1015625 2.46484375 C1.91304687 2.64144531 0.72453125 2.81804687 -0.5 3 C-1.68335938 3.17402344 -2.86671875 3.34804687 -4.0859375 3.52734375 C-7.03202381 3.89712786 -7.03202381 3.89712786 -9.125 5.0625 C-6.91386358 0.16641221 -5.24075958 -0.06718923 0 0 Z " fill="#8EC5D2" transform="translate(172.125,171.9375)"/>
<path d="M0 0 C2.1793144 1.75864246 2.93686419 2.69396 3.51171875 5.48046875 C3.59873047 6.82044922 3.59873047 6.82044922 3.6875 8.1875 C3.75324219 9.08855469 3.81898438 9.98960938 3.88671875 10.91796875 C3.92410156 11.60503906 3.96148437 12.29210937 4 13 C1.43016581 9.77195215 0.30274084 6.90822252 -1 3 C-1.66 2.67 -2.32 2.34 -3 2 C-2.01 2 -1.02 2 0 2 C0 1.34 0 0.68 0 0 Z " fill="#6FB9BE" transform="translate(307,91)"/>
<path d="M0 0 C0.99 0.33 1.98 0.66 3 1 C0.19195732 3.96404505 -2.18315774 6.44499019 -6 8 C-6 6.68 -6 5.36 -6 4 C-4.68 3.67 -3.36 3.34 -2 3 C-2 2.34 -2 1.68 -2 1 C-1.34 0.67 -0.68 0.34 0 0 Z " fill="#7DB8D0" transform="translate(92,49)"/>
<path d="M0 0 C2.47859908 2.2008849 3.61210366 4.06372969 4.6875 7.1875 C4.93886719 7.90292969 5.19023438 8.61835938 5.44921875 9.35546875 C5.63097656 9.89816406 5.81273438 10.44085938 6 11 C3.625 10.4375 3.625 10.4375 1 9 C-0.375 5.5 -0.375 5.5 -1 2 C-0.67 1.34 -0.34 0.68 0 0 Z " fill="#96C8D6" transform="translate(101,259)"/>
<path d="M0 0 C0.33 0 0.66 0 1 0 C1.68041782 5.27323808 -0.75213663 9.39388711 -3 14 C-3.66 14 -4.32 14 -5 14 C-4.04408477 8.83805777 -3.19653259 4.30837002 0 0 Z " fill="#55A0C6" transform="translate(71,130)"/>
<path d="M0 0 C2.94721162 2.74395564 5.19168608 5.38337216 7 9 C6.67 9.66 6.34 10.32 6 11 C1.77202073 8.00518135 1.77202073 8.00518135 0 6 C-0.375 2.6875 -0.375 2.6875 0 0 Z " fill="#7DC2C7" transform="translate(319,74)"/>
<path d="M0 0 C1 2 1 2 0.58203125 3.91015625 C0.32808594 4.62042969 0.07414062 5.33070312 -0.1875 6.0625 C-0.54908203 7.13177734 -0.54908203 7.13177734 -0.91796875 8.22265625 C-2 10 -2 10 -4.11328125 10.74609375 C-4.73589844 10.82988281 -5.35851563 10.91367188 -6 11 C-4.54955729 6.89041233 -2.48889248 3.56741255 0 0 Z " fill="#88C0D5" transform="translate(46,69)"/>
<path d="M0 0 C5.70709064 0.46588495 9.15939723 1.93757784 14 5 C14 5.66 14 6.32 14 7 C9.0276578 5.50829734 4.58154261 3.39542583 0 1 C0 0.67 0 0.34 0 0 Z " fill="#3B9EAA" transform="translate(244,14)"/>
<path d="M0 0 C3.48435804 4.59301742 5.26283775 7.08615072 5 13 C0.87010523 8.73688282 0.38728235 5.71241466 0 0 Z " fill="#7FBBD3" transform="translate(54,246)"/>
<path d="M0 0 C-0.639375 0.103125 -1.27875 0.20625 -1.9375 0.3125 C-2.618125 0.539375 -3.29875 0.76625 -4 1 C-4.33 1.99 -4.66 2.98 -5 4 C-9.455 4.495 -9.455 4.495 -14 5 C-11 3 -11 3 -8 3 C-8 2.34 -8 1.68 -8 1 C-3.375 -1.125 -3.375 -1.125 0 0 Z " fill="#67B5BF" transform="translate(238,288)"/>
<path d="M0 0 C4.89190898 0.61148862 9.57553286 1.79304622 14 4 C14.33 4.66 14.66 5.32 15 6 C13.05954312 5.5758071 11.12268239 5.13514005 9.1875 4.6875 C8.10855469 4.44386719 7.02960938 4.20023437 5.91796875 3.94921875 C3.0552844 3.01798408 1.84602934 2.31239465 0 0 Z " fill="#66B6BC" transform="translate(252,284)"/>
<path d="M0 0 C0.99 0 1.98 0 3 0 C3.93619813 3.15506142 4.1057123 5.96586502 4.0625 9.25 C4.05347656 10.14203125 4.04445313 11.0340625 4.03515625 11.953125 C4.02355469 12.62859375 4.01195313 13.3040625 4 14 C1.37548383 11.37548383 1.4167132 9.5122172 0.875 5.875 C0.70742187 4.77929688 0.53984375 3.68359375 0.3671875 2.5546875 C0.24601562 1.71164063 0.12484375 0.86859375 0 0 Z " fill="#9DCCD9" transform="translate(97,245)"/>
<path d="M0 0 C0 0.66 0 1.32 0 2 C-0.99 2.33 -1.98 2.66 -3 3 C-3.33 3.66 -3.66 4.32 -4 5 C-6.97 5 -9.94 5 -13 5 C-10.54278328 3.36185552 -8.65432189 2.38047801 -5.9375 1.375 C-5.24527344 1.11460937 -4.55304688 0.85421875 -3.83984375 0.5859375 C-2 0 -2 0 0 0 Z " fill="#8DC8D0" transform="translate(244,195)"/>
<path d="M0 0 C2.31 0.66 4.62 1.32 7 2 C7 2.66 7 3.32 7 4 C7.66 4 8.32 4 9 4 C9 4.99 9 5.98 9 7 C5.18315774 5.44499019 2.80804268 2.96404505 0 0 Z " fill="#7BB9CE" transform="translate(79,312)"/>
<path d="M0 0 C0.66 0 1.32 0 2 0 C0.4169423 4.2742558 -2.50568404 6.26531794 -6 9 C-6 6 -6 6 -3.5625 3.375 C-2.716875 2.59125 -1.87125 1.8075 -1 1 C-0.67 0.67 -0.34 0.34 0 0 Z " fill="#59B0B3" transform="translate(301,240)"/>
<path d="M0 0 C0.66 0 1.32 0 2 0 C2.93619813 3.15506142 3.1057123 5.96586502 3.0625 9.25 C3.05347656 10.14203125 3.04445313 11.0340625 3.03515625 11.953125 C3.02355469 12.62859375 3.01195313 13.3040625 3 14 C2.67 14 2.34 14 2 14 C1.47216999 11.85587698 0.95290681 9.70964319 0.4375 7.5625 C0.00244141 5.77005859 0.00244141 5.77005859 -0.44140625 3.94140625 C-0.62574219 2.97074219 -0.81007813 2.00007812 -1 1 C-0.67 0.67 -0.34 0.34 0 0 Z " fill="#90C4D5" transform="translate(95,230)"/>
<path d="M0 0 C2.43189168 0.85116209 4.69691285 1.84845643 7 3 C7 3.66 7 4.32 7 5 C7.66 5.33 8.32 5.66 9 6 C3.58974863 5.39886096 1.78332024 4.78332024 -2 1 C-1.34 0.67 -0.68 0.34 0 0 Z " fill="#88C0C9" transform="translate(187,211)"/>
<path d="M0 0 C0.66 0.33 1.32 0.66 2 1 C0.625 3.5 0.625 3.5 -1 6 C-1.66 6 -2.32 6 -3 6 C-2.79375 6.78375 -2.5875 7.5675 -2.375 8.375 C-2.25125 9.24125 -2.1275 10.1075 -2 11 C-2.66 11.66 -3.32 12.32 -4 13 C-4.49230769 5.73846154 -4.49230769 5.73846154 -2 2 C-1.34 1.34 -0.68 0.68 0 0 Z " fill="#93C6D7" transform="translate(24,206)"/>
<path d="M0 0 C0.66 0 1.32 0 2 0 C0.64531705 4.87685861 -1.71675909 6.48592381 -6 9 C-6.66 8.67 -7.32 8.34 -8 8 C-7.01 7.67 -6.02 7.34 -5 7 C-5 6.34 -5 5.68 -5 5 C-3.625 3.375 -3.625 3.375 -2 2 C-1.34 2 -0.68 2 0 2 C0 1.34 0 0.68 0 0 Z " fill="#8EC2D5" transform="translate(71,183)"/>
<path d="M0 0 C3.96 0 7.92 0 12 0 C8.1875 3.8125 8.1875 3.8125 5 4 C2.25 2.625 2.25 2.625 0 1 C0 0.67 0 0.34 0 0 Z " fill="#9BCBD5" transform="translate(192,142)"/>
<path d="M0 0 C3.6875 0.3125 3.6875 0.3125 7 1 C7 1.99 7 2.98 7 4 C3.7 3.67 0.4 3.34 -3 3 C-2.01 2.01 -1.02 1.02 0 0 Z " fill="#8DC4D2" transform="translate(182,132)"/>
<path d="M0 0 C0.66 0 1.32 0 2 0 C1.71788123 1.6266848 1.42397625 3.25132896 1.125 4.875 C0.96257813 5.77992187 0.80015625 6.68484375 0.6328125 7.6171875 C0 10 0 10 -2 12 C-2.28571429 3.42857143 -2.28571429 3.42857143 0 0 Z " fill="#71B1CE" transform="translate(48,104)"/>
<path d="M0 0 C1.32 0 2.64 0 4 0 C4 0.66 4 1.32 4 2 C4.66 2 5.32 2 6 2 C6 3.98 6 5.96 6 8 C4.68 7.34 3.36 6.68 2 6 C2.33 5.01 2.66 4.02 3 3 C2.01 2.67 1.02 2.34 0 2 C0 1.34 0 0.68 0 0 Z " fill="#8DC9CD" transform="translate(299,84)"/>
<path d="M0 0 C5.63281599 -0.2396943 10.54538831 0.61470179 16 2 C16 2.33 16 2.66 16 3 C11.05 3 6.1 3 1 3 C0.67 2.01 0.34 1.02 0 0 Z " fill="#99CDD8" transform="translate(198,0)"/>
<path d="M0 0 C0.33 1.32 0.66 2.64 1 4 C-2.96 5.98 -2.96 5.98 -7 8 C-7.33 7.01 -7.66 6.02 -8 5 C-7.01 5 -6.02 5 -5 5 C-5 4.34 -5 3.68 -5 3 C-3.68 3 -2.36 3 -1 3 C-0.67 2.01 -0.34 1.02 0 0 Z " fill="#79BCC1" transform="translate(253,211)"/>
<path d="M0 0 C0.66 0.33 1.32 0.66 2 1 C0.73657512 2.48549956 -0.5360103 3.96321189 -1.8125 5.4375 C-2.52019531 6.26121094 -3.22789062 7.08492187 -3.95703125 7.93359375 C-6 10 -6 10 -9 11 C-7.44095325 7.17324889 -4.96833913 4.81992217 -2 2 C-1.34 1.34 -0.68 0.68 0 0 Z " fill="#349C9F" transform="translate(258,183)"/>
<path d="M0 0 C1.37432457 3.81756824 0.67975039 7.07255329 0 11 C-0.66 11 -1.32 11 -2 11 C-2 7.7 -2 4.4 -2 1 C-1.34 0.67 -0.68 0.34 0 0 Z " fill="#85BED3" transform="translate(39,137)"/>
<path d="M0 0 C-0.625 1.875 -0.625 1.875 -2 4 C-5.125 5.25 -5.125 5.25 -8 6 C-7.8125 4.125 -7.8125 4.125 -7 2 C-4.55683729 0.74709605 -2.75474605 0 0 0 Z " fill="#7EBBD1" transform="translate(111,15)"/>
<path d="M0 0 C0.33 0.66 0.66 1.32 1 2 C1.66 2 2.32 2 3 2 C3 2.99 3 3.98 3 5 C3.66 5 4.32 5 5 5 C4.67 6.65 4.34 8.3 4 10 C1.2027092 7.93243723 0.97307727 6.85559629 0.3125 3.3125 C0.209375 2.219375 0.10625 1.12625 0 0 Z " fill="#96C7D9" transform="translate(25,233)"/>
<path d="M0 0 C0.99 0.33 1.98 0.66 3 1 C2.34 3.97 1.68 6.94 1 10 C-1.56687367 6.1496895 -0.83288724 4.41430237 0 0 Z " fill="#7CB9D2" transform="translate(73,173)"/>
<path d="M0 0 C2.20352938 3.93487389 4 8.4501079 4 13 C3.34 13 2.68 13 2 13 C-0.24828052 8.50343896 -0.16682272 4.92127034 0 0 Z " fill="#5AA3C3" transform="translate(98,148)"/>
<path d="M0 0 C3.36591866 1.44253657 5.51047079 3.33264727 8 6 C7.401875 5.835 6.80375 5.67 6.1875 5.5 C3.88655664 4.8885876 3.88655664 4.8885876 1 5 C0.34 3.68 -0.32 2.36 -1 1 C-0.67 0.67 -0.34 0.34 0 0 Z " fill="#6FBAC2" transform="translate(278,31)"/>
<path d="M0 0 C4.3890815 0.51035831 7.33708062 1.52214277 11 4 C7.23375329 5.25541557 5.62811066 4.37061958 2 3 C2 2.34 2 1.68 2 1 C1.34 0.67 0.68 0.34 0 0 Z " fill="#7EBBCC" transform="translate(139,325)"/>
<path d="M0 0 C2.475 0.495 2.475 0.495 5 1 C5 2.98 5 4.96 5 7 C4.34 6.67 3.68 6.34 3 6 C3 5.34 3 4.68 3 4 C2.01 3.67 1.02 3.34 0 3 C0 2.01 0 1.02 0 0 Z " fill="#8BC0D5" transform="translate(47,276)"/>
<path d="M0 0 C0.309375 0.639375 0.61875 1.27875 0.9375 1.9375 C1.8345163 3.93610821 1.8345163 3.93610821 3 5 C3.07179964 6.51928038 3.08392007 8.04167482 3.0625 9.5625 C3.05347656 10.38878906 3.04445313 11.21507812 3.03515625 12.06640625 C3.01775391 13.02353516 3.01775391 13.02353516 3 14 C1.44962387 11.14128958 0.51021069 8.48629675 -0.1875 5.3125 C-0.36667969 4.52488281 -0.54585938 3.73726562 -0.73046875 2.92578125 C-0.81941406 2.29027344 -0.90835938 1.65476563 -1 1 C-0.67 0.67 -0.34 0.34 0 0 Z " fill="#AFD7E1" transform="translate(88,196)"/>
<path d="M0 0 C2.96052484 3.36423277 3.92289822 6.69159287 5 11 C4.34 11 3.68 11 3 11 C3 10.01 3 9.02 3 8 C2.01 8 1.02 8 0 8 C0 5.36 0 2.72 0 0 Z " fill="#8DCACF" transform="translate(330,93)"/>
<path d="M0 0 C2.475 0.495 2.475 0.495 5 1 C5.33 3.31 5.66 5.62 6 8 C5.01 7.67 4.02 7.34 3 7 C1.875 4.5625 1.875 4.5625 1 2 C0.67 1.34 0.34 0.68 0 0 Z " fill="#79BDC2" transform="translate(290,71)"/>
<path d="M0 0 C3.7726764 0.53895377 5.68212991 1.99535358 8 5 C7.60546875 7.13671875 7.60546875 7.13671875 7 9 C5.83037314 7.69013727 4.66437056 6.3770374 3.5 5.0625 C2.8503125 4.33160156 2.200625 3.60070313 1.53125 2.84765625 C0 1 0 1 0 0 Z " fill="#329FA3" transform="translate(299,53)"/>
<path d="M0 0 C1.98 0.99 3.96 1.98 6 3 C6 3.99 6 4.98 6 6 C6.66 6.33 7.32 6.66 8 7 C4.21388773 6.45912682 2.44599233 4.88277668 0 2 C0 1.34 0 0.68 0 0 Z " fill="#68B6C0" transform="translate(268,24)"/>
<path d="M0 0 C0.33 0 0.66 0 1 0 C1.33 5.28 1.66 10.56 2 16 C-1.34089023 11.54547969 -1.30946125 10.95185771 -0.6875 5.75 C-0.56761719 4.67234375 -0.44773437 3.5946875 -0.32421875 2.484375 C-0.21722656 1.66453125 -0.11023438 0.8446875 0 0 Z " fill="#67B7BB" transform="translate(289,278)"/>
<path d="M0 0 C2.475 0.495 2.475 0.495 5 1 C6.125 4.75 6.125 4.75 5 7 C4.34 7 3.68 7 3 7 C2.01 4.69 1.02 2.38 0 0 Z " fill="#86BED5" transform="translate(42,269)"/>
<path d="M0 0 C0.66 0 1.32 0 2 0 C3.31626692 3.61973402 4 6.09567131 4 10 C1.38952199 8.694761 1.31933577 7.64173426 0.375 4.9375 C0.11460938 4.20402344 -0.14578125 3.47054687 -0.4140625 2.71484375 C-0.60742188 2.14894531 -0.80078125 1.58304688 -1 1 C-0.67 0.67 -0.34 0.34 0 0 Z " fill="#8CC1D6" transform="translate(34,252)"/>
<path d="M0 0 C3 1 3 1 4 3 C4.039992 4.99960012 4.04346799 7.00047242 4 9 C3.71125 8.360625 3.4225 7.72125 3.125 7.0625 C2.17176549 4.84793921 2.17176549 4.84793921 0 4 C0 2.68 0 1.36 0 0 Z " fill="#8CC2D5" transform="translate(29,243)"/>
<path d="M0 0 C2.25 0.25 2.25 0.25 4 1 C2.25 3.0625 2.25 3.0625 0 5 C-2.25 4.75 -2.25 4.75 -4 4 C-2.25 1.9375 -2.25 1.9375 0 0 Z " fill="#66B5BB" transform="translate(247,119)"/>
<path d="M0 0 C0.66 0 1.32 0 2 0 C1.5 7.5 1.5 7.5 -3 12 C-2.01 8.04 -1.02 4.08 0 0 Z " fill="#A7D2DF" transform="translate(29,97)"/>
<path d="M0 0 C1.33897583 0.95043374 2.67105427 1.91059147 4 2.875 C5.11375 3.67550781 5.11375 3.67550781 6.25 4.4921875 C6.8275 4.98976562 7.405 5.48734375 8 6 C8 6.66 8 7.32 8 8 C3.25 6.125 3.25 6.125 1 5 C0.375 2.4375 0.375 2.4375 0 0 Z " fill="#469EB0" transform="translate(184,184)"/>
<path d="M0 0 C0.99 0.495 0.99 0.495 2 1 C2.4140625 3.06640625 2.4140625 3.06640625 2.625 5.5625 C2.69976562 6.38878906 2.77453125 7.21507812 2.8515625 8.06640625 C2.92503906 9.02353516 2.92503906 9.02353516 3 10 C2.34 9.67 1.68 9.34 1 9 C0.5859375 6.93359375 0.5859375 6.93359375 0.375 4.4375 C0.30023438 3.61121094 0.22546875 2.78492188 0.1484375 1.93359375 C0.09945313 1.29550781 0.05046875 0.65742188 0 0 Z " fill="#2C9D9E" transform="translate(322,129)"/>
<path d="M0 0 C0.66 0 1.32 0 2 0 C1.1875 3.4375 1.1875 3.4375 0 7 C-0.99 7.33 -1.98 7.66 -3 8 C-2.45276317 4.62537285 -1.9451 2.91765 0 0 Z " fill="#56A2CA" transform="translate(29,105)"/>
<path d="M0 0 C0 3.69418201 -1.28179295 5.77836178 -3 9 C-3.33 9 -3.66 9 -4 9 C-4.125 3.25 -4.125 3.25 -3 1 C-2.01 0.67 -1.02 0.34 0 0 Z " fill="#93C5D8" transform="translate(59,88)"/>
<path d="M0 0 C-3.81143533 2.22333727 -7.71285253 3.10108198 -12 4 C-12.66 3.67 -13.32 3.34 -14 3 C-14 2.34 -14 1.68 -14 1 C-4.58997722 -0.14806378 -4.58997722 -0.14806378 0 0 Z " fill="#9ACCD7" transform="translate(165,21)"/>
<path d="M0 0 C1.98 0.66 3.96 1.32 6 2 C6 2.99 6 3.98 6 5 C6.66 5.33 7.32 5.66 8 6 C5.21788056 5.62403791 3.4120716 5.32681541 1.1875 3.5625 C0 2 0 2 0 0 Z " fill="#C9E3E9" transform="translate(93,323)"/>
<path d="M0 0 C0.99 0 1.98 0 3 0 C1.70700306 2.88437779 0.34058637 4.87219421 -2 7 C-2.125 4.625 -2.125 4.625 -2 2 C-1.34 1.34 -0.68 0.68 0 0 Z " fill="#6BB6BA" transform="translate(320,245)"/>
<path d="M0 0 C0.99 0.495 0.99 0.495 2 1 C2 1.66 2 2.32 2 3 C2.99 3 3.98 3 5 3 C5.33 4.32 5.66 5.64 6 7 C5.01 7 4.02 7 3 7 C3 6.34 3 5.68 3 5 C2.34 5 1.68 5 1 5 C0.67 3.35 0.34 1.7 0 0 Z " fill="#70B1D0" transform="translate(48,239)"/>
<path d="M0 0 C0.33 0 0.66 0 1 0 C1.08096803 1.45742463 1.13917774 2.91612807 1.1875 4.375 C1.22230469 5.18710938 1.25710938 5.99921875 1.29296875 6.8359375 C1.19628906 7.55007812 1.09960938 8.26421875 1 9 C0.01 9.66 -0.98 10.32 -2 11 C-1 3.57142857 -1 3.57142857 0 0 Z " fill="#2C9B9A" transform="translate(319,203)"/>
<path d="M0 0 C0.66 0 1.32 0 2 0 C1.45276317 3.37462715 0.9451 5.08235 -1 8 C-1.66 8 -2.32 8 -3 8 C-3.33 7.01 -3.66 6.02 -4 5 C-2.68 4.67 -1.36 4.34 0 4 C0 2.68 0 1.36 0 0 Z " fill="#4DA3C0" transform="translate(136,183)"/>
<path d="M0 0 C1.485 0.99 1.485 0.99 3 2 C2.67 5.3 2.34 8.6 2 12 C1.67 12 1.34 12 1 12 C1.020625 11.0925 1.04125 10.185 1.0625 9.25 C1.01062783 6.55264733 0.73005714 4.5552 0 2 C0 1.34 0 0.68 0 0 Z " fill="#309C9F" transform="translate(277,176)"/>
<path d="M0 0 C0.99 0 1.98 0 3 0 C3.25 2.25 3.25 2.25 3 5 C1 7.3125 1 7.3125 -1 9 C-0.67 6.03 -0.34 3.06 0 0 Z " fill="#ABD6E1" transform="translate(79,160)"/>
<path d="M0 0 C0.33 0 0.66 0 1 0 C1 2.31 1 4.62 1 7 C-0.32 7.33 -1.64 7.66 -3 8 C-1.125 2.25 -1.125 2.25 0 0 Z " fill="#74B5CF" transform="translate(35,87)"/>
<path d="M0 0 C2.78388975 1.70625501 3.85384206 2.47626739 4.75 5.6875 C4.8325 6.450625 4.915 7.21375 5 8 C2 7 2 7 0 4 C0 2.68 0 1.36 0 0 Z " fill="#7FC1C7" transform="translate(282,60)"/>
<path d="M0 0 C-0.33 0.66 -0.66 1.32 -1 2 C-4.375 2.125 -4.375 2.125 -8 2 C-8.66 1.34 -9.32 0.68 -10 0 C-6.30581799 -1.231394 -3.7943739 -0.64432764 0 0 Z " fill="#71B5C4" transform="translate(165,352)"/>
<path d="M0 0 C4.30840713 1.07710178 7.63576723 2.03947516 11 5 C8.69 4.67 6.38 4.34 4 4 C4 3.34 4 2.68 4 2 C2.68 1.67 1.36 1.34 0 1 C0 0.67 0 0.34 0 0 Z " fill="#7CB8CD" transform="translate(107,309)"/>
<path d="M0 0 C4.95 0.99 4.95 0.99 10 2 C10 2.99 10 3.98 10 5 C9.01 5 8.02 5 7 5 C7 4.34 7 3.68 7 3 C4.69 2.34 2.38 1.68 0 1 C0 0.67 0 0.34 0 0 Z " fill="#A4D2D8" transform="translate(249,305)"/>
<path d="M0 0 C3.26460973 1.80412643 4.88929795 2.83394693 7 6 C4.0625 5.25 4.0625 5.25 1 4 C0.125 1.875 0.125 1.875 0 0 Z " fill="#88C0D4" transform="translate(93,296)"/>
<path d="M0 0 C2.76276177 0.52268466 5.3260876 1.10869587 8 2 C8 2.66 8 3.32 8 4 C5.36 3.67 2.72 3.34 0 3 C0 2.01 0 1.02 0 0 Z " fill="#7DC1C7" transform="translate(267,290)"/>
<path d="M0 0 C1.35439668 2.70879335 1.06501451 5.00933268 1 8 C0.34 8 -0.32 8 -1 8 C-1.33 8.66 -1.66 9.32 -2 10 C-2.25 3.375 -2.25 3.375 0 0 Z " fill="#52A2CC" transform="translate(72,175)"/>
<path d="M0 0 C6.625 0.75 6.625 0.75 10 3 C3.375 3.125 3.375 3.125 0 2 C0 1.34 0 0.68 0 0 Z " fill="#86C2CD" transform="translate(227,6)"/>
<path d="M0 0 C5.75 1.75 5.75 1.75 8 4 C5.69 4 3.38 4 1 4 C0.67 2.68 0.34 1.36 0 0 Z " fill="#86C2D1" transform="translate(131,321)"/>
<path d="M0 0 C0.33 0 0.66 0 1 0 C1 2.31 1 4.62 1 7 C0.34 7 -0.32 7 -1 7 C-1.33 7.99 -1.66 8.98 -2 10 C-2.25 3.375 -2.25 3.375 0 0 Z " fill="#8DC7CD" transform="translate(290,254)"/>
<path d="M0 0 C0.99 0 1.98 0 3 0 C1.8141763 3.37503669 0.72426311 5.64722731 -2 8 C-2 6.68 -2 5.36 -2 4 C-1.34 4 -0.68 4 0 4 C0 2.68 0 1.36 0 0 Z " fill="#8AC7CC" transform="translate(325,237)"/>
<path d="M0 0 C0.33 0 0.66 0 1 0 C1 2.97 1 5.94 1 9 C0.34 9 -0.32 9 -1 9 C-1.33 9.66 -1.66 10.32 -2 11 C-1.40049704 7.31733897 -0.75241109 3.65456815 0 0 Z " fill="#41A3A7" transform="translate(325,177)"/>
<path d="M0 0 C-0.33 2.31 -0.66 4.62 -1 7 C-4 3.25 -4 3.25 -4 1 C-2 0 -2 0 0 0 Z " fill="#48A0BF" transform="translate(140,168)"/>
<path d="M0 0 C2 1 2 1 2 1 Z " fill="#FFFFFF" transform="translate(304,320)"/>
<path d="" fill="#FFFFFF" transform="translate(0,0)"/>
<path d="" fill="#FFFFFF" transform="translate(0,0)"/>
<path d="" fill="#FFFFFF" transform="translate(0,0)"/>
<path d="" fill="#FFFFFF" transform="translate(0,0)"/>
</svg>
